<svg width="23" height="22" viewBox="0 0 23 22" fill="none" xmlns="http://www.w3.org/2000/svg">
<path fill-rule="evenodd" clip-rule="evenodd" d="M9.96226 0.0108735C9.94133 0.0187218 9.9018 0.0216497 9.87442 0.0173633C9.84704 0.013077 9.78674 0.0193558 9.74044 0.0313094C9.69413 0.0432629 9.62681 0.0530432 9.59085 0.0530432C9.55488 0.0530432 9.48561 0.0666268 9.43693 0.083229C9.38825 0.0998312 9.32037 0.11349 9.28608 0.113566C9.2518 0.113656 9.15523 0.138001 9.07148 0.167674C8.83699 0.250775 8.69765 0.287436 8.68581 0.269143C8.67308 0.249477 7.57162 0.714595 7.57162 0.739635C7.57162 0.759633 7.40662 0.852847 7.12243 0.993377C7.01356 1.04721 6.89859 1.11177 6.86693 1.13683C6.83529 1.1619 6.74888 1.21339 6.67491 1.25125C6.60093 1.28912 6.50864 1.34613 6.46983 1.37791C6.43102 1.4097 6.34564 1.46403 6.28009 1.49866C6.21453 1.53328 6.14778 1.57596 6.13174 1.59353C6.11571 1.6111 6.06236 1.64883 6.01319 1.6774C5.964 1.70597 5.89198 1.75552 5.85312 1.78754C5.81425 1.81953 5.7619 1.85606 5.73677 1.8687C5.71165 1.88135 5.6475 1.92651 5.59422 1.96906C5.54092 2.0116 5.47175 2.05936 5.44045 2.07518C5.40918 2.09099 5.37277 2.12029 5.35957 2.14029C5.34635 2.16027 5.30933 2.18861 5.2773 2.20327C5.24526 2.21791 5.18822 2.2584 5.15053 2.29327C5.11284 2.32812 5.05637 2.37319 5.02502 2.39341C4.99366 2.41363 4.96798 2.43495 4.96791 2.44077C4.96785 2.4466 4.93525 2.47319 4.89548 2.49987C4.85571 2.52656 4.79139 2.57612 4.75257 2.61002C4.71375 2.64392 4.63565 2.70902 4.579 2.75467C4.52236 2.80033 4.45476 2.85856 4.42879 2.88406C4.40281 2.90956 4.35759 2.94647 4.32827 2.96609C4.29896 2.9857 4.25785 3.02028 4.23691 3.0429C4.21597 3.06554 4.12004 3.15379 4.02373 3.23903C3.72859 3.50025 3.13579 4.07975 2.88171 4.35546C2.80215 4.44179 2.70279 4.54825 2.66092 4.59205C2.57368 4.6833 2.57973 4.67636 2.26095 5.05151C2.12919 5.20658 2.00425 5.358 1.98332 5.38801C1.96238 5.41801 1.90756 5.48881 1.8615 5.54535C1.81544 5.60189 1.75034 5.68387 1.71684 5.72754C1.68334 5.77122 1.64404 5.82145 1.62952 5.83915C1.61497 5.85687 1.57535 5.91211 1.54146 5.96192C1.41077 6.15397 1.37466 6.20497 1.33704 6.25075C1.31563 6.2768 1.2981 6.30472 1.2981 6.31283C1.2981 6.32092 1.27926 6.35172 1.25623 6.38127C1.2332 6.41082 1.19037 6.47408 1.16106 6.52185C1.1114 6.60276 1.07277 6.66319 0.950499 6.8512C0.923943 6.89206 0.902199 6.93177 0.902199 6.93944C0.902199 6.94711 0.886774 6.97427 0.867938 6.99978C0.832977 7.04713 0.784357 7.13448 0.710521 7.28254C0.687757 7.3282 0.656952 7.38293 0.64206 7.40416C0.627168 7.42538 0.603095 7.47293 0.588568 7.50981C0.574042 7.54669 0.548765 7.59602 0.532411 7.61945C0.516042 7.64289 0.493186 7.69325 0.481598 7.73138C0.470026 7.7695 0.444186 7.82844 0.424177 7.86235C0.404169 7.89625 0.376897 7.96135 0.363589 8.007C0.350265 8.05266 0.318974 8.13077 0.294063 8.18057C0.269152 8.23038 0.237525 8.32207 0.223775 8.38433C0.197219 8.50465 0.150122 8.62589 0.123657 8.64211C0.0890921 8.66329 -0.0239989 9.39362 0.00458218 9.41111C0.0158349 9.41801 0.0254282 9.48605 0.0303465 9.59372C0.0346405 9.6881 0.0432743 9.77212 0.0495173 9.78042C0.0557604 9.78872 0.0658102 9.82923 0.0718248 9.87043C0.0778547 9.91165 0.0924266 9.959 0.104197 9.97568C0.115983 9.99234 0.125622 10.0213 0.125622 10.04C0.125622 10.0587 0.139296 10.0962 0.156015 10.1234C0.172734 10.1506 0.186438 10.181 0.186469 10.1909C0.186682 10.2588 0.489029 10.5774 0.604145 10.6311C0.642456 10.6489 0.673794 10.6694 0.673794 10.6766C0.673794 10.6838 0.701202 10.694 0.734702 10.6993C0.768201 10.7047 0.79561 10.7154 0.79561 10.7232C0.79561 10.731 0.821313 10.7415 0.852711 10.7465C0.884124 10.7515 0.921704 10.762 0.936246 10.7698C0.950788 10.7777 0.985247 10.7841 1.01281 10.7841C1.04037 10.7841 1.07722 10.794 1.09468 10.8062C1.11414 10.8197 1.16118 10.828 1.21609 10.8276C1.26538 10.8272 1.39137 10.8302 1.49605 10.8342C1.62215 10.839 1.7198 10.8347 1.78536 10.8214C1.8398 10.8103 1.95618 10.797 2.04399 10.7918C2.16513 10.7845 2.24414 10.7695 2.37138 10.7294C3.35746 10.4188 3.38793 10.4081 3.62871 10.2864C3.759 10.2206 3.93376 10.1404 4.01703 10.1082C4.10107 10.0758 4.20573 10.0218 4.25218 9.98688C4.29822 9.9523 4.40188 9.8964 4.48255 9.86263C4.56323 9.82887 4.64545 9.78373 4.66528 9.76231C4.6851 9.74089 4.76335 9.6946 4.83917 9.65945C4.91497 9.62428 5.00052 9.57424 5.02926 9.5482C5.05801 9.52218 5.13646 9.47293 5.20358 9.43878C5.27072 9.40461 5.34962 9.35415 5.37894 9.32665C5.40825 9.29914 5.47677 9.25508 5.53121 9.22873C5.58564 9.20238 5.64681 9.16031 5.66714 9.13524C5.68745 9.11019 5.73884 9.07427 5.78134 9.05543C5.82382 9.03661 5.88257 8.99615 5.91188 8.96552C5.94119 8.9349 6.00443 8.89006 6.05243 8.86587C6.10041 8.84169 6.15085 8.80498 6.16453 8.78429C6.1782 8.76361 6.22903 8.72282 6.27747 8.69366C6.3259 8.66448 6.36925 8.63104 6.37378 8.61934C6.37831 8.60763 6.43012 8.57021 6.48889 8.53619C6.54767 8.50216 6.60463 8.46225 6.61546 8.44751C6.6263 8.43276 6.66257 8.40088 6.69607 8.37667C6.72957 8.35245 6.78845 8.30424 6.82692 8.26955C6.86538 8.23483 6.91677 8.19621 6.94112 8.18371C6.96547 8.1712 7.00418 8.14003 7.02714 8.11444C7.0501 8.08884 7.09605 8.05091 7.12926 8.03013C7.16247 8.00936 7.19699 7.97874 7.20598 7.96209C7.21498 7.94544 7.25874 7.90516 7.30325 7.87256C7.37544 7.8197 7.38701 7.80331 7.41036 7.72086C7.43499 7.6338 7.43047 7.57044 7.39513 7.50758C7.39237 7.50269 7.34893 7.50426 7.2986 7.51108C7.19457 7.52518 6.89813 7.66115 6.81003 7.73518C6.78058 7.75993 6.68062 7.81315 6.58787 7.85347C6.49514 7.89378 6.38718 7.94863 6.34798 7.97537C6.21805 8.06396 6.08086 8.1196 5.52359 8.30965C5.03219 8.47722 4.85412 8.52513 4.7657 8.51349C4.71933 8.50739 4.64771 8.51087 4.59164 8.5219C4.51398 8.5372 4.48944 8.53699 4.45885 8.52077C4.43629 8.5088 4.39704 8.5041 4.36036 8.50898C4.32095 8.51422 4.28969 8.50979 4.27196 8.49647C4.25687 8.48512 4.22674 8.47562 4.20501 8.47537C4.18328 8.4751 4.15309 8.4613 4.13794 8.4447C4.12279 8.4281 4.09521 8.41451 4.07666 8.41451C4.03689 8.41451 3.88669 8.30055 3.88669 8.27038C3.88669 8.25892 3.87355 8.24257 3.85747 8.23406C3.84141 8.22554 3.82353 8.19642 3.81776 8.16937C3.81199 8.14233 3.79498 8.10662 3.77995 8.09002C3.72525 8.0296 3.71551 7.66065 3.76408 7.48909C3.7819 7.42617 3.80631 7.31921 3.81834 7.25138C3.83038 7.18355 3.85669 7.1 3.87684 7.06569C3.89697 7.0314 3.91844 6.97955 3.92453 6.9505C3.93061 6.92145 3.95466 6.86372 3.97796 6.82221C4.00126 6.78071 4.02538 6.72977 4.03155 6.70901C4.03773 6.68826 4.07788 6.60839 4.12081 6.53154C4.16373 6.45467 4.21597 6.3583 4.23691 6.31737C4.25785 6.27645 4.28961 6.22728 4.30749 6.2081C4.32537 6.18891 4.34501 6.15624 4.35111 6.13548C4.35722 6.11473 4.37482 6.08408 4.3902 6.06736C4.4056 6.05065 4.42868 6.01205 4.44152 5.98161C4.45435 5.95115 4.47153 5.92216 4.47969 5.91716C4.48785 5.91217 4.53376 5.84887 4.58173 5.77651C4.62969 5.70416 4.7008 5.60414 4.73975 5.55423C4.7787 5.50433 4.81956 5.4466 4.83052 5.42594C4.84148 5.40529 4.8683 5.36667 4.8901 5.34013C4.91189 5.31358 4.9503 5.26419 4.97542 5.23035C5.10404 5.05711 5.47068 4.6264 5.65834 4.42811C5.71822 4.36483 5.81862 4.25684 5.88143 4.18814C6.05237 4.00118 6.53433 3.52471 6.74175 3.33765C6.84225 3.247 6.94846 3.15051 6.97777 3.12324C7.07599 3.03184 7.3849 2.7631 7.48815 2.67921C7.54435 2.63355 7.6221 2.56816 7.66093 2.53386C7.69974 2.49959 7.75252 2.45884 7.77819 2.44331C7.80388 2.42779 7.85527 2.38967 7.8924 2.35862C7.97295 2.29126 8.07529 2.21178 8.15496 2.15475C8.18684 2.13191 8.24166 2.09117 8.27677 2.06422C8.31187 2.03726 8.37821 1.99016 8.42421 1.95953C8.4702 1.92893 8.54411 1.87458 8.58847 1.83878C8.63282 1.80297 8.69503 1.76056 8.7267 1.74455C8.75837 1.72854 8.8143 1.69058 8.851 1.66018C8.88768 1.6298 8.96354 1.58207 9.01956 1.55411C9.07558 1.52614 9.15471 1.47461 9.19542 1.43961C9.23613 1.4046 9.32425 1.35029 9.39125 1.31893C9.45825 1.28757 9.55075 1.23343 9.59682 1.19862C9.64288 1.16381 9.7902 1.08224 9.9242 1.01736C10.0582 0.952475 10.2095 0.873418 10.2604 0.841663C10.3624 0.778046 10.9066 0.551667 11.051 0.512773C11.1258 0.492624 11.1495 0.477984 11.1819 0.432087L11.2215 0.376016L11.1819 0.329666C11.1602 0.304174 11.1269 0.278576 11.1081 0.272796C11.0892 0.26703 11.0667 0.249176 11.0581 0.233132C11.0494 0.217103 11.0297 0.203972 11.0143 0.203972C10.9988 0.203972 10.9777 0.193785 10.9672 0.181333C10.9568 0.168881 10.936 0.158694 10.9209 0.158694C10.9059 0.158694 10.8708 0.147359 10.8429 0.133503C10.7478 0.0862777 10.7392 0.083229 10.7019 0.083229C10.6813 0.083229 10.6603 0.0764372 10.6551 0.0681361C10.6499 0.059835 10.6303 0.0530432 10.6116 0.0530432C10.5928 0.0530432 10.5699 0.0455572 10.5606 0.0363958C10.5514 0.0272495 10.4798 0.0178316 10.4015 0.015462C10.3232 0.0131075 10.2592 0.00942449 10.2592 0.0072813C10.2592 -0.00438552 9.99438 -0.00118572 9.96226 0.0108735ZM18.4982 1.49902C18.4411 1.51521 18.4103 1.51644 18.3688 1.50411C18.325 1.49113 18.2917 1.49374 18.2001 1.51733C18.1373 1.53349 18.0345 1.54688 17.9717 1.54708C17.8901 1.54733 17.8117 1.56063 17.6976 1.59359C17.6096 1.61898 17.4935 1.64234 17.4395 1.64553C17.3044 1.6535 17.2372 1.67078 16.8525 1.79665C16.6682 1.85692 16.4645 1.92087 16.3997 1.93875C16.2573 1.9781 15.853 2.12562 15.779 2.16527C15.7497 2.18096 15.688 2.20848 15.6419 2.22639C15.5959 2.24432 15.428 2.31327 15.2689 2.3796C15.1098 2.44593 14.9282 2.52161 14.8654 2.54775C14.8025 2.57389 14.7032 2.62708 14.6446 2.66594C14.5859 2.70481 14.4523 2.77518 14.3476 2.82233C14.243 2.86948 14.123 2.93416 14.0812 2.96606C14.0393 2.99796 13.9228 3.06227 13.8223 3.10899C13.7218 3.15571 13.6156 3.21686 13.5863 3.24491C13.557 3.27293 13.4748 3.32425 13.4036 3.35895C13.3324 3.39363 13.2502 3.44466 13.2208 3.47234C13.1915 3.50002 13.1112 3.55016 13.0424 3.58377C12.9735 3.61738 12.9063 3.66138 12.8929 3.68156C12.8796 3.70174 12.8126 3.74681 12.744 3.78169C12.6755 3.81657 12.592 3.87036 12.5585 3.90122C12.525 3.93207 12.4633 3.97641 12.4214 3.99975C12.3795 4.02308 12.3167 4.06794 12.2818 4.09942C12.2469 4.13091 12.1813 4.17738 12.1361 4.20267C12.0909 4.22798 12.0372 4.26635 12.0168 4.28792C11.9965 4.3095 11.9345 4.35344 11.8792 4.38555C11.8238 4.41767 11.7673 4.46087 11.7537 4.48154C11.74 4.50222 11.6962 4.53751 11.6564 4.55997C11.6165 4.58242 11.5565 4.62618 11.523 4.65719C11.4895 4.68821 11.4347 4.72729 11.4012 4.74404C11.3677 4.76078 11.3163 4.79952 11.287 4.83014C11.2577 4.86077 11.1943 4.91255 11.1462 4.94523C11.098 4.9779 11.0586 5.01114 11.0586 5.01908C11.0586 5.02702 11.0295 5.05426 10.9939 5.07961C10.9182 5.13357 10.7902 5.24358 10.7082 5.32522C10.6764 5.35689 10.6206 5.40156 10.5842 5.42452C10.5478 5.44747 10.453 5.5284 10.3734 5.60438C10.2938 5.68034 10.2227 5.74263 10.2154 5.74278C10.2081 5.74295 10.1695 5.77534 10.1297 5.81476C9.96813 5.97488 9.69908 6.21967 9.66535 6.2373C9.64556 6.24764 9.62506 6.26954 9.61981 6.28596C9.61454 6.30238 9.58999 6.33011 9.56525 6.34757C9.54051 6.36503 9.49638 6.41033 9.46717 6.44824C9.42361 6.50479 9.41409 6.5301 9.41409 6.58946C9.41409 6.67282 9.4355 6.7392 9.46238 6.7392C9.47259 6.7392 9.4997 6.75701 9.52261 6.77877L9.56427 6.81833L9.66049 6.78769C9.71341 6.77083 9.88004 6.71526 10.0308 6.66422C10.353 6.5551 10.5188 6.51306 10.6275 6.51291C10.6709 6.51285 10.7565 6.50162 10.8178 6.48793C10.9487 6.45871 11.3599 6.44661 11.3901 6.47109C11.4014 6.48027 11.4416 6.48298 11.4872 6.47763C11.5355 6.47195 11.5772 6.47524 11.5973 6.48633C11.6151 6.49613 11.6707 6.50905 11.721 6.51504C11.8783 6.53379 11.9559 6.5524 11.9848 6.57832C12.0001 6.59209 12.0265 6.60336 12.0434 6.60336C12.0603 6.60336 12.0865 6.61695 12.1017 6.63355C12.1168 6.65015 12.1442 6.66374 12.1626 6.66374C12.1809 6.66374 12.2083 6.67732 12.2235 6.69392C12.2386 6.71052 12.2634 6.72411 12.2785 6.72411C12.2937 6.72411 12.3183 6.73713 12.3333 6.75307C12.3483 6.76899 12.379 6.78662 12.4016 6.79224C12.4242 6.79785 12.4537 6.81909 12.4671 6.83943C12.4805 6.85976 12.5072 6.88347 12.5263 6.89211C12.5454 6.90074 12.5729 6.92762 12.5873 6.95186C12.6018 6.9761 12.6328 7.00577 12.6562 7.01779C12.6796 7.0298 12.7074 7.06008 12.7178 7.08505C12.7282 7.11003 12.7588 7.14709 12.7857 7.1674C12.816 7.19036 12.8418 7.22839 12.8537 7.26786C12.8643 7.3028 12.8894 7.34651 12.9095 7.36501C12.9525 7.40445 13.0069 7.51651 13.0073 7.56653C13.0077 7.60673 13.0301 7.65424 13.069 7.6976C13.084 7.7142 13.1073 7.76514 13.1209 7.8108C13.1476 7.90048 13.2051 8.5232 13.2167 8.84982C13.223 9.02751 13.2202 9.06138 13.1921 9.13772C13.1707 9.19584 13.1556 9.28885 13.1462 9.42118C13.1351 9.57612 13.1248 9.63221 13.098 9.68417C13.0774 9.72429 13.0593 9.79627 13.0521 9.8674C13.0447 9.93965 13.0257 10.0149 13.0024 10.0636C12.9817 10.1071 12.9568 10.1868 12.9471 10.2408C12.9367 10.2985 12.913 10.3627 12.8895 10.3967C12.8632 10.4348 12.8458 10.4853 12.8388 10.5446C12.8318 10.6037 12.8146 10.6539 12.7887 10.6909C12.767 10.7219 12.7423 10.7837 12.7338 10.8283C12.7253 10.8728 12.6984 10.939 12.674 10.9754C12.6497 11.0119 12.6217 11.0751 12.6118 11.1159C12.6019 11.1567 12.5837 11.1984 12.5713 11.2086C12.5401 11.2344 12.511 11.2949 12.4994 11.3587C12.494 11.3884 12.4727 11.4353 12.4521 11.463C12.4314 11.4907 12.4067 11.5378 12.3972 11.5676C12.3876 11.5974 12.3574 11.6455 12.3301 11.6746C12.3017 11.7047 12.2761 11.7511 12.2705 11.7825C12.2651 11.8128 12.2429 11.8636 12.2212 11.8954C12.1994 11.9271 12.1719 11.9804 12.1601 12.0136C12.1482 12.0469 12.1223 12.0912 12.1025 12.1121C12.0827 12.1329 12.0552 12.1771 12.0414 12.2102C12.0277 12.2433 12.0039 12.284 11.9884 12.3007C11.973 12.3174 11.945 12.3617 11.9262 12.399C11.9074 12.4364 11.8724 12.4893 11.8484 12.5165C11.8244 12.5438 11.8047 12.5717 11.8047 12.5786C11.8047 12.5855 11.7834 12.6175 11.7574 12.6498C11.7314 12.682 11.694 12.7441 11.6745 12.7877C11.6549 12.8313 11.6328 12.8669 11.6252 12.8669C11.6177 12.8669 11.5955 12.8979 11.5758 12.9359C11.5561 12.9738 11.5277 13.0114 11.5125 13.0194C11.4974 13.0274 11.4721 13.0592 11.4562 13.09C11.4403 13.1209 11.4121 13.1597 11.3936 13.1763C11.3751 13.1929 11.347 13.2315 11.3313 13.2621C11.3155 13.2927 11.2899 13.3266 11.2744 13.3376C11.2589 13.3485 11.2372 13.3744 11.2264 13.3952C11.2155 13.4159 11.1834 13.4601 11.155 13.4933C11.1266 13.5265 11.0657 13.5978 11.0197 13.6518C10.9736 13.7057 10.9116 13.777 10.8819 13.8102C10.8522 13.8434 10.7739 13.9321 10.7078 14.0074C10.6417 14.0826 10.5704 14.1533 10.5493 14.1645C10.5282 14.1757 10.5065 14.1988 10.501 14.2159C10.4955 14.233 10.456 14.2821 10.4132 14.325C10.3704 14.3679 10.2771 14.4615 10.2059 14.533C9.98178 14.7581 9.91064 14.8234 9.8515 14.8584C9.81989 14.877 9.78388 14.9117 9.77147 14.9355C9.75906 14.9593 9.71813 14.9966 9.68049 15.0185C9.64286 15.0404 9.59739 15.0787 9.57944 15.1036C9.5615 15.1286 9.51014 15.1723 9.46531 15.2007C9.42047 15.2292 9.3724 15.2697 9.35847 15.2907C9.34455 15.3118 9.29432 15.3485 9.24685 15.3722C9.19939 15.396 9.14179 15.4398 9.11882 15.4696C9.09251 15.5038 9.04229 15.5395 8.98292 15.5662C8.92322 15.5931 8.87338 15.6286 8.84673 15.6632C8.8236 15.6933 8.76327 15.7398 8.71266 15.7665C8.66203 15.7933 8.614 15.8273 8.60595 15.8423C8.58684 15.8777 8.48343 15.9357 8.38156 15.9683C8.33057 15.9846 8.27997 16.0152 8.24452 16.0512C8.18151 16.1152 8.11984 16.1498 8.01245 16.1814C7.97231 16.1932 7.89952 16.2325 7.85072 16.2686C7.73569 16.3538 7.70183 16.3699 7.51411 16.4288C7.42805 16.4559 7.33072 16.4973 7.29783 16.5209C7.21052 16.5836 7.07567 16.634 6.81789 16.7002C6.4701 16.7895 6.14362 16.852 6.02548 16.8519C5.58146 16.8517 5.43167 16.8435 5.39457 16.8175C5.36864 16.7993 5.32802 16.7911 5.264 16.7911C5.18456 16.7911 5.16588 16.7856 5.1353 16.7533C5.10785 16.7244 5.08425 16.7156 5.03368 16.7156C4.9867 16.7156 4.95847 16.7064 4.93527 16.6834C4.91736 16.6656 4.87521 16.645 4.84159 16.6375C4.80795 16.63 4.7604 16.6072 4.73592 16.5867C4.71143 16.5663 4.67871 16.5496 4.66321 16.5496C4.64771 16.5496 4.62167 16.5328 4.60534 16.5122C4.58902 16.4916 4.55703 16.4678 4.53425 16.4592C4.51147 16.4506 4.48956 16.4318 4.48557 16.4173C4.48159 16.4029 4.44905 16.3733 4.41327 16.3516C4.36987 16.3253 4.33709 16.2894 4.31483 16.2438C4.29646 16.2062 4.26791 16.172 4.25136 16.1677C4.23481 16.1634 4.211 16.1355 4.19843 16.1057C4.18587 16.0759 4.16848 16.0515 4.1598 16.0515C4.15111 16.0515 4.1336 16.0268 4.12087 15.9967C4.10815 15.9665 4.08403 15.9234 4.06728 15.901C4.05052 15.8785 4.03016 15.8308 4.02204 15.795C4.00073 15.7009 3.90167 15.5791 3.83088 15.5598C3.76043 15.5406 3.69856 15.5915 3.63185 15.7236C3.55552 15.8747 3.53021 15.9658 3.5072 16.1723C3.4975 16.2594 3.48001 16.3851 3.46834 16.4515C3.41083 16.7789 3.3972 16.8794 3.37625 17.1307C3.36331 17.2858 3.35362 17.5813 3.35367 17.8193C3.35373 18.1692 3.3577 18.2457 3.37838 18.2948C3.39516 18.3346 3.40401 18.4066 3.40613 18.5206C3.40872 18.6599 3.41455 18.6967 3.44081 18.7395C3.45883 18.7688 3.47698 18.833 3.48308 18.889C3.48896 18.9429 3.50682 19.0168 3.52276 19.0532C3.53871 19.0896 3.55899 19.1643 3.56785 19.2192C3.57766 19.2801 3.59564 19.3314 3.61394 19.3507C3.63191 19.3697 3.64772 19.414 3.65337 19.4613C3.66052 19.5212 3.67138 19.5458 3.69847 19.5634C3.71898 19.5767 3.74126 19.6131 3.75087 19.6491C3.76006 19.6834 3.78111 19.726 3.79763 19.7437C3.81415 19.7614 3.83751 19.8083 3.84955 19.8479C3.86158 19.8876 3.88543 19.9297 3.90256 19.9416C3.91967 19.9535 3.9444 19.9898 3.95751 20.0223C3.97064 20.0548 3.98743 20.0813 3.99485 20.0813C4.00228 20.0813 4.02285 20.1119 4.04056 20.1492C4.05827 20.1866 4.07869 20.2172 4.08592 20.2172C4.09317 20.2172 4.10904 20.2358 4.12119 20.2587C4.15252 20.3175 4.46411 20.6227 4.5439 20.6727C4.56618 20.6866 4.58908 20.7126 4.59478 20.7304C4.60093 20.7496 4.63309 20.7746 4.67406 20.7921C4.71198 20.8082 4.75565 20.8373 4.77112 20.8568C4.78729 20.8772 4.8225 20.896 4.85394 20.901C4.88403 20.9059 4.93247 20.9306 4.96159 20.9559C4.99072 20.9813 5.03178 21.002 5.05283 21.002C5.07577 21.002 5.11246 21.0225 5.14427 21.0532C5.18668 21.094 5.21441 21.1064 5.28141 21.1147C5.34358 21.1224 5.37889 21.1369 5.4174 21.1704C5.46144 21.2087 5.48693 21.2173 5.58354 21.2265C5.6728 21.2349 5.70597 21.245 5.73566 21.2726C5.76863 21.3033 5.79328 21.309 5.92271 21.3156C6.03616 21.3213 6.09107 21.3319 6.15262 21.3596C6.22853 21.3939 6.24435 21.3955 6.41148 21.3863C6.53081 21.3797 6.61206 21.3824 6.658 21.3944C6.80429 21.4327 6.99309 21.4422 7.14527 21.4189C7.22483 21.4068 7.40299 21.3823 7.54117 21.3645C7.81728 21.3289 8.07617 21.2883 8.31013 21.2438C8.39388 21.2278 8.53093 21.2038 8.61467 21.1905C8.69842 21.1771 8.83547 21.1488 8.91921 21.1277C9.05286 21.0939 9.10865 21.0723 9.20091 21.0186C9.2522 20.9887 9.50175 20.9067 9.64716 20.872C9.89727 20.8124 9.90518 20.8095 9.99055 20.7458C10.0546 20.6979 10.1244 20.6683 10.3158 20.6076C10.4826 20.5547 10.5745 20.5173 10.6072 20.489C10.6757 20.4298 10.7551 20.3933 10.934 20.3387C11.0447 20.3049 11.1077 20.2763 11.1472 20.2419C11.2279 20.1717 11.2659 20.1506 11.3938 20.1051C11.4627 20.0805 11.5289 20.0445 11.5611 20.0141C11.6212 19.9574 11.6968 19.9169 11.8278 19.8712C11.877 19.8541 11.9382 19.8204 11.9638 19.7964C12.0256 19.7385 12.1123 19.6872 12.2226 19.6435C12.2755 19.6225 12.3404 19.5808 12.3791 19.5431C12.4381 19.4854 12.5531 19.4323 12.6192 19.4323C12.6286 19.4323 12.6719 19.3951 12.7155 19.3495C12.7613 19.3016 12.8342 19.2469 12.8883 19.2198C12.9398 19.194 13.0037 19.1501 13.0303 19.1221C13.057 19.0941 13.1124 19.0572 13.1536 19.0401C13.2843 18.9857 13.3271 18.9586 13.3745 18.9001C13.402 18.8662 13.4605 18.8239 13.5186 18.7958C13.5831 18.7646 13.6262 18.7323 13.6447 18.7011C13.6629 18.6705 13.7109 18.6339 13.7799 18.598C13.8413 18.566 13.9044 18.5195 13.928 18.4889C13.9518 18.4579 14.0117 18.414 14.0708 18.3842C14.1291 18.3548 14.1908 18.3097 14.2152 18.2786C14.2398 18.2475 14.3013 18.2026 14.3599 18.173C14.4252 18.1401 14.4707 18.1058 14.4865 18.0774C14.5 18.0531 14.5489 18.0117 14.5951 17.9855C14.6414 17.9593 14.7045 17.9073 14.7354 17.8699C14.7663 17.8324 14.8134 17.7909 14.8399 17.7775C14.8665 17.7642 14.9293 17.7144 14.9796 17.6669C15.0299 17.6194 15.0933 17.5691 15.1206 17.5551C15.1478 17.5412 15.1872 17.5029 15.2081 17.47C15.2346 17.4285 15.274 17.3963 15.3374 17.3646C15.4 17.3333 15.4403 17.3006 15.4658 17.2606C15.4862 17.2285 15.5271 17.1874 15.5566 17.1693C15.5862 17.1513 15.6312 17.1104 15.6566 17.0785C15.6821 17.0466 15.7368 16.999 15.7781 16.9727C15.8194 16.9464 15.8664 16.9028 15.8825 16.8758C15.8986 16.8488 15.9433 16.8069 15.9819 16.7827C16.0206 16.7585 16.0643 16.7158 16.0793 16.6878C16.0942 16.6598 16.1421 16.6141 16.1858 16.5862C16.2295 16.5583 16.2826 16.5082 16.3039 16.4748C16.3252 16.4413 16.3698 16.397 16.403 16.3762C16.4362 16.3554 16.4754 16.3203 16.4901 16.2981C16.5047 16.2759 16.5578 16.2278 16.6081 16.1911C16.6584 16.1544 16.7075 16.1055 16.7173 16.0824C16.7271 16.0593 16.7633 16.018 16.7976 15.9906C16.832 15.9632 16.8736 15.918 16.8902 15.8902C16.9068 15.8624 16.9437 15.8259 16.9723 15.8092C17.0009 15.7925 17.0418 15.7526 17.0632 15.7205C17.0846 15.6884 17.1341 15.6394 17.1731 15.6116C17.212 15.5839 17.2569 15.5361 17.2727 15.5054C17.2885 15.4747 17.3258 15.4311 17.3557 15.4085C17.3856 15.3859 17.421 15.3464 17.4343 15.3208C17.4477 15.2952 17.4901 15.2425 17.5286 15.2037C17.5671 15.1648 17.6294 15.0983 17.6671 15.0558C17.7048 15.0133 17.7809 14.933 17.8362 14.8773C17.8915 14.8217 17.9417 14.7608 17.9477 14.7421C17.9537 14.7233 17.9862 14.686 18.02 14.6591C18.0538 14.6322 18.0945 14.5848 18.1105 14.5538C18.1265 14.5228 18.157 14.4861 18.1783 14.4722C18.1996 14.4584 18.2302 14.4216 18.2462 14.3904C18.2622 14.3593 18.2953 14.3178 18.3196 14.2984C18.3439 14.2789 18.3755 14.238 18.3897 14.2075C18.404 14.177 18.4391 14.1363 18.4678 14.117C18.4964 14.0977 18.524 14.0693 18.529 14.054C18.534 14.0387 18.5717 13.9893 18.6127 13.9444C18.6537 13.8995 18.6873 13.856 18.6873 13.8478C18.6873 13.8396 18.712 13.8074 18.7421 13.7763C18.7723 13.7452 18.8137 13.6959 18.834 13.6668C18.8544 13.6378 18.9017 13.5733 18.9391 13.5235C18.9765 13.4737 19.0323 13.3956 19.0632 13.3499C19.0942 13.3043 19.1357 13.25 19.1556 13.2292C19.1755 13.2084 19.2026 13.171 19.2157 13.1461C19.2289 13.1212 19.2627 13.0754 19.2909 13.0442C19.319 13.0131 19.3421 12.981 19.3421 12.9731C19.3421 12.9651 19.3644 12.9335 19.3916 12.9028C19.4385 12.85 19.4736 12.8029 19.5776 12.6528C19.6025 12.617 19.6383 12.5687 19.6571 12.5455C19.676 12.5223 19.7044 12.4748 19.7201 12.4399C19.7359 12.405 19.7632 12.3637 19.7809 12.3482C19.7985 12.3326 19.8209 12.2953 19.8306 12.2652C19.8403 12.235 19.8674 12.19 19.8909 12.1651C19.9144 12.1402 19.945 12.0914 19.9589 12.0566C19.9728 12.0218 20.0009 11.9825 20.0213 11.9692C20.0418 11.9559 20.0694 11.9181 20.0827 11.885C20.0961 11.852 20.123 11.8125 20.1425 11.7973C20.162 11.782 20.192 11.733 20.2092 11.6882C20.2263 11.6435 20.2527 11.5966 20.2678 11.5841C20.2829 11.5716 20.3116 11.524 20.3315 11.4784C20.3515 11.4327 20.3866 11.371 20.4095 11.3411C20.4325 11.3113 20.462 11.2615 20.4751 11.2304C20.4882 11.1993 20.5162 11.1535 20.5372 11.1287C20.5583 11.1039 20.5755 11.0706 20.5755 11.0547C20.5755 11.0387 20.5987 11.0001 20.6272 10.9689C20.6556 10.9377 20.6864 10.8844 20.6957 10.8505C20.7049 10.8165 20.7317 10.7622 20.7552 10.7298C20.7787 10.6974 20.8092 10.643 20.8228 10.6088C20.8365 10.5747 20.8647 10.5218 20.8856 10.4914C20.9064 10.4609 20.928 10.4156 20.9335 10.3906C20.9391 10.3657 20.968 10.3218 20.9978 10.2931C21.0396 10.2528 21.0548 10.2234 21.0643 10.1643C21.0712 10.1209 21.0965 10.0577 21.1229 10.0183C21.1484 9.98009 21.1693 9.93364 21.1693 9.91509C21.1693 9.89656 21.1933 9.85293 21.2226 9.81815C21.2537 9.78134 21.2761 9.73819 21.2763 9.71484C21.2766 9.67035 21.3248 9.55563 21.3495 9.54052C21.3582 9.53519 21.3758 9.4951 21.3886 9.45146C21.402 9.4055 21.4305 9.35438 21.4561 9.33005C21.4908 9.29709 21.5025 9.26962 21.5105 9.2026C21.5161 9.15563 21.5365 9.08983 21.556 9.0564C21.5754 9.02295 21.5958 8.9723 21.6013 8.94384C21.6068 8.91536 21.6313 8.86102 21.6558 8.82309C21.6826 8.7816 21.7046 8.72233 21.711 8.67441C21.7179 8.62181 21.7357 8.57712 21.7631 8.54288C21.7883 8.51144 21.8117 8.45593 21.8224 8.40185C21.8326 8.3505 21.8553 8.29517 21.8758 8.27145C21.9024 8.24078 21.9135 8.20573 21.9193 8.13427C21.9253 8.06024 21.9379 8.02202 21.9746 7.96722C22.0119 7.91135 22.022 7.88 22.022 7.82034C22.022 7.76236 22.0318 7.73053 22.0635 7.68518C22.0993 7.63406 22.105 7.61066 22.1054 7.51581C22.1057 7.42096 22.1108 7.40044 22.142 7.36749C22.1713 7.33664 22.1798 7.30796 22.1859 7.21911C22.1905 7.15247 22.2056 7.08531 22.224 7.04904C22.244 7.00979 22.2581 6.94161 22.265 6.85139C22.273 6.74634 22.2839 6.70025 22.3108 6.65708C22.3431 6.60531 22.3452 6.58957 22.3361 6.47181C22.327 6.35436 22.3295 6.33613 22.3643 6.26317C22.3981 6.19238 22.402 6.16621 22.3988 6.03483C22.396 5.91875 22.4008 5.87625 22.4211 5.8396C22.4514 5.78457 22.4563 5.70666 22.4403 5.53513C22.4308 5.43323 22.4338 5.39337 22.4566 5.31866C22.4837 5.22991 22.4837 5.22214 22.4568 5.06624C22.4387 4.96174 22.4275 4.80969 22.4248 4.63211C22.4202 4.3327 22.4024 4.21108 22.317 3.89419C22.2079 3.48931 22.1789 3.42054 22.0335 3.22225C22.006 3.18472 21.9568 3.08623 21.9243 3.0034C21.8729 2.87273 21.8535 2.84179 21.7776 2.76977C21.7257 2.72043 21.6712 2.6491 21.6435 2.59392C21.6077 2.52288 21.5834 2.49455 21.5397 2.47318C21.5035 2.45552 21.4681 2.42034 21.4431 2.37735C21.4197 2.33716 21.3831 2.29973 21.3534 2.28568C21.3258 2.27261 21.2768 2.23355 21.2445 2.19889C21.2112 2.16315 21.1718 2.13586 21.1536 2.13586C21.1353 2.13586 21.0978 2.10978 21.0667 2.07549C21.0344 2.03978 20.9984 2.01512 20.9786 2.01512C20.9602 2.01512 20.9279 1.9981 20.9069 1.97728C20.8859 1.95647 20.8456 1.93158 20.8173 1.92198C20.789 1.91237 20.742 1.88525 20.7129 1.86172C20.6837 1.83817 20.6453 1.81891 20.6274 1.81891C20.6096 1.81891 20.5697 1.80193 20.5389 1.78118C20.508 1.76043 20.4642 1.74324 20.4416 1.74297C20.4189 1.74271 20.3871 1.73252 20.3708 1.72033C20.3546 1.70815 20.3233 1.69817 20.3014 1.69817C20.2795 1.69817 20.2482 1.68819 20.232 1.67601C20.2157 1.66382 20.1852 1.65363 20.1641 1.65337C20.1431 1.6531 20.1003 1.63931 20.069 1.62271C20.0378 1.6061 19.989 1.59252 19.9607 1.59252C19.9324 1.59252 19.9012 1.58288 19.8913 1.57109C19.8805 1.55817 19.8328 1.5467 19.7714 1.54221C19.7153 1.53812 19.577 1.52368 19.4639 1.5101C19.1857 1.4767 18.6006 1.46998 18.4982 1.49902Z" fill="black"/>
</svg>
