<svg width="40" height="40" viewBox="0 0 40 40" fill="none" xmlns="http://www.w3.org/2000/svg">
<rect width="40" height="40" rx="12" fill="#5765F2"/>
<g clip-path="url(#clip0_1597_3851)">
<path d="M23.9416 9C23.668 9.50355 23.4223 10.0245 23.199 10.557C21.077 10.2271 18.916 10.2271 16.7885 10.557C16.5707 10.0245 16.3194 9.50355 16.0458 9C14.0523 9.35308 12.1091 9.97238 10.2664 10.8464C6.61442 16.4549 5.62605 21.9187 6.11745 27.3073C8.25612 28.9453 10.6517 30.1955 13.2036 30.9942C13.7787 30.1955 14.2869 29.3446 14.7224 28.4591C13.896 28.1408 13.0975 27.7414 12.3325 27.2784C12.5335 27.1279 12.7289 26.9716 12.9188 26.8211C17.4027 29.009 22.5959 29.009 27.0854 26.8211C27.2753 26.9832 27.4707 27.1394 27.6717 27.2784C26.9067 27.7472 26.1082 28.1408 25.2762 28.4649C25.7118 29.3504 26.2199 30.2013 26.7951 31C29.3469 30.2013 31.7424 28.9568 33.8813 27.3189C34.4619 21.0679 32.8872 15.6503 29.721 10.8521C27.884 9.97817 25.9407 9.35885 23.9472 9.01157L23.9416 9ZM15.3478 23.9908C13.9686 23.9908 12.8239 22.6943 12.8239 21.091C12.8239 19.4878 13.9239 18.1855 15.3423 18.1855C16.7606 18.1855 17.8885 19.4936 17.8662 21.091C17.8439 22.6885 16.755 23.9908 15.3478 23.9908ZM24.6508 23.9908C23.266 23.9908 22.1324 22.6943 22.1324 21.091C22.1324 19.4878 23.2325 18.1855 24.6508 18.1855C26.0692 18.1855 27.1915 19.4936 27.1692 21.091C27.1469 22.6885 26.058 23.9908 24.6508 23.9908Z" fill="#E1E3FF"/>
</g>
<defs>
<clipPath id="clip0_1597_3851">
<rect width="28" height="22" fill="white" transform="translate(6 9)"/>
</clipPath>
</defs>
</svg>
