<svg width="40" height="40" viewBox="0 0 40 40" fill="none" xmlns="http://www.w3.org/2000/svg">
<rect width="40" height="40" rx="12" fill="#855DCD"/>
<path fill-rule="evenodd" clip-rule="evenodd" d="M15.7015 32H7.15567V31.071C7.15567 30.6434 7.50422 30.2968 7.93414 30.2968H8.08982V29.3678C8.08982 28.9402 8.43833 28.5936 8.86825 28.5936V14.8129H8.01198L7 11.4064H11.515V8H28.485V11.4064H33L31.988 14.8129H31.1318V28.5936C31.5617 28.5936 31.9102 28.9402 31.9102 29.3678V30.2968H32.0659C32.4958 30.2968 32.8443 30.6434 32.8443 31.071V32H24.3081V31.071C24.3081 30.6434 24.6567 30.2968 25.0866 30.2968H25.2423V29.3678C25.2423 28.9491 25.5765 28.608 25.994 28.594V21.0065C25.7187 17.9681 23.1267 15.5871 20 15.5871C16.8733 15.5871 14.2813 17.9681 14.006 21.0065V28.5937C14.428 28.6028 14.7673 28.9459 14.7673 29.3678V29.8323V30.2968H14.923C15.3529 30.2968 15.7015 30.6434 15.7015 31.071V32Z" fill="white"/>
</svg>
