<svg width="40" height="40" viewBox="0 0 40 40" fill="none" xmlns="http://www.w3.org/2000/svg">
<rect width="40" height="40" rx="12" fill="url(#paint0_linear_3889_7161)"/>
<path d="M15.6757 20.0514C15.6757 17.6585 17.6144 15.7182 20.0066 15.7182C22.3988 15.7182 24.3386 17.6585 24.3386 20.0514C24.3386 22.4443 22.3988 24.3846 20.0066 24.3846C17.6144 24.3846 15.6757 22.4443 15.6757 20.0514ZM13.3339 20.0514C13.3339 23.7378 16.3213 26.7261 20.0066 26.7261C23.692 26.7261 26.6794 23.7378 26.6794 20.0514C26.6794 16.365 23.692 13.3767 20.0066 13.3767C16.3213 13.3767 13.3339 16.365 13.3339 20.0514ZM25.3841 13.1121C25.384 13.4206 25.4754 13.7222 25.6466 13.9788C25.8179 14.2354 26.0613 14.4354 26.3462 14.5536C26.6311 14.6718 26.9446 14.7028 27.2471 14.6427C27.5497 14.5826 27.8276 14.4342 28.0458 14.2161C28.2639 13.9981 28.4125 13.7202 28.4728 13.4176C28.5331 13.1151 28.5024 12.8014 28.3845 12.5164C28.2666 12.2313 28.0668 11.9876 27.8104 11.8161C27.554 11.6446 27.2526 11.553 26.9442 11.5529H26.9435C26.5301 11.5531 26.1337 11.7174 25.8413 12.0097C25.5489 12.3021 25.3845 12.6986 25.3841 13.1121ZM14.7567 30.632C13.4897 30.5743 12.8011 30.3632 12.3435 30.1849C11.7368 29.9486 11.3039 29.6672 10.8488 29.2126C10.3936 28.7579 10.1119 28.3253 9.87673 27.7184C9.69834 27.2609 9.4873 26.5719 9.42971 25.3045C9.36671 23.9344 9.35413 23.5228 9.35413 20.0515C9.35413 16.5802 9.36775 16.1698 9.42971 14.7985C9.48741 13.5312 9.7 12.8435 9.87673 12.3846C10.1129 11.7777 10.3942 11.3447 10.8488 10.8894C11.3033 10.4342 11.7357 10.1523 12.3435 9.91712C12.8009 9.73868 13.4897 9.52758 14.7567 9.46997C16.1265 9.40695 16.5379 9.39437 20.0066 9.39437C23.4753 9.39437 23.8872 9.40799 25.2581 9.46997C26.5251 9.52768 27.2126 9.74034 27.6714 9.91712C28.2781 10.1523 28.711 10.4348 29.1661 10.8894C29.6212 11.3441 29.9019 11.7777 30.1381 12.3846C30.3165 12.8421 30.5275 13.5312 30.5851 14.7985C30.6481 16.1698 30.6607 16.5802 30.6607 20.0515C30.6607 23.5228 30.6481 23.9332 30.5851 25.3045C30.5274 26.5719 30.3154 27.2607 30.1381 27.7184C29.9019 28.3253 29.6206 28.7583 29.1661 29.2126C28.7116 29.6668 28.2781 29.9486 27.6714 30.1849C27.2139 30.3633 26.5251 30.5744 25.2581 30.632C23.8884 30.695 23.4769 30.7076 20.0066 30.7076C16.5364 30.7076 16.126 30.695 14.7567 30.632ZM14.6491 7.13145C13.2657 7.19447 12.3204 7.41389 11.4949 7.73522C10.6399 8.06705 9.91614 8.51223 9.19289 9.23454C8.46964 9.95685 8.02574 10.682 7.694 11.5372C7.37277 12.3635 7.15342 13.3085 7.09042 14.6923C7.02638 16.0783 7.01172 16.5214 7.01172 20.0514C7.01172 23.5814 7.02638 24.0245 7.09042 25.4105C7.15342 26.7944 7.37277 27.7393 7.694 28.5656C8.02574 29.4203 8.46975 30.1463 9.19289 30.8683C9.91603 31.5903 10.6399 32.0348 11.4949 32.3676C12.322 32.6889 13.2657 32.9083 14.6491 32.9714C16.0354 33.0344 16.4776 33.0501 20.0066 33.0501C23.5356 33.0501 23.9786 33.0354 25.3642 32.9714C26.7477 32.9083 27.6924 32.6889 28.5184 32.3676C29.3729 32.0348 30.0971 31.5906 30.8204 30.8683C31.5436 30.146 31.9866 29.4203 32.3193 28.5656C32.6405 27.7393 32.8609 26.7943 32.9229 25.4105C32.9859 24.0235 33.0005 23.5814 33.0005 20.0514C33.0005 16.5214 32.9859 16.0783 32.9229 14.6923C32.8599 13.3084 32.6405 12.363 32.3193 11.5372C31.9866 10.6825 31.5425 9.95799 30.8204 9.23454C30.0983 8.51108 29.3729 8.06705 28.5195 7.73522C27.6924 7.41389 26.7476 7.19343 25.3652 7.13145C23.9797 7.06844 23.5367 7.05273 20.0077 7.05273C16.4787 7.05273 16.0354 7.0674 14.6491 7.13145Z" fill="white"/>
<defs>
<linearGradient id="paint0_linear_3889_7161" x1="39.2312" y1="40" x2="-0.768799" y2="-1.07669e-06" gradientUnits="userSpaceOnUse">
<stop stop-color="#FBE18A"/>
<stop offset="0.21" stop-color="#FCBB45"/>
<stop offset="0.38" stop-color="#F75274"/>
<stop offset="0.52" stop-color="#D53692"/>
<stop offset="0.74" stop-color="#8F39CE"/>
<stop offset="1" stop-color="#5B4FE9"/>
</linearGradient>
</defs>
</svg>
