<svg width="40" height="40" viewBox="0 0 40 40" fill="none" xmlns="http://www.w3.org/2000/svg">
<rect width="40" height="40" rx="12" fill="#0077B5"/>
<path fill-rule="evenodd" clip-rule="evenodd" d="M13.7747 10.2839C13.7747 11.529 12.8267 12.5366 11.3442 12.5366C9.91935 12.5366 8.97132 11.529 9.00066 10.2839C8.97132 8.97828 9.91933 8 11.3726 8C12.8267 8 13.7463 8.97828 13.7747 10.2839ZM9.11986 28.8191V14.3162H13.6271V28.8181H9.11986V28.8191Z" fill="white"/>
<path fill-rule="evenodd" clip-rule="evenodd" d="M17.2398 18.9446C17.2398 17.1357 17.1802 15.5935 17.1206 14.3182H21.0356L21.2437 16.305H21.3326C21.9259 15.3854 23.4084 13.9927 25.8106 13.9927C28.7757 13.9927 31 15.9502 31 20.219V28.821H26.4927V20.7838C26.4927 18.9144 25.8408 17.6399 24.2098 17.6399C22.9637 17.6399 22.2229 18.4999 21.9268 19.3297C21.8076 19.6268 21.7489 20.0412 21.7489 20.4574V28.821H17.2416V18.9446H17.2398Z" fill="white"/>
</svg>
