<svg width="40" height="40" viewBox="0 0 40 40" fill="none" xmlns="http://www.w3.org/2000/svg">
<rect width="40" height="40" rx="12" fill="#FF6719"/>
<path fill-rule="evenodd" clip-rule="evenodd" d="M9.00099 9.41729V10.8346H19.5005H30V9.41729V8H19.5005H9.00099V9.41729ZM9.01042 14.817L9.02088 16.2442L19.5104 16.2543L30 16.2644V14.827V13.3897H19.5H9L9.01042 14.817ZM9.00099 25.4078V31.9962L9.13025 31.9292C9.20132 31.8923 11.5324 30.587 14.3104 29.0284C17.0884 27.4698 19.3974 26.1781 19.4414 26.1579C19.5074 26.1276 20.4126 26.6207 24.552 28.9417C27.3187 30.4931 29.6763 31.8158 29.7912 31.8812L30 32V25.4096V18.8193H19.5005H9.00099V25.4078Z" fill="white"/>
</svg>
