<svg width="40" height="40" viewBox="0 0 40 40" fill="none" xmlns="http://www.w3.org/2000/svg">
<rect width="40" height="40" rx="12" fill="#212121"/>
<path d="M15.5054 33.9917C17.9875 33.9917 20.0024 31.9767 20.0024 29.4946V24.9976H15.5054C13.0233 24.9976 11.0083 27.0125 11.0083 29.4946C11.0083 31.9767 13.0233 33.9917 15.5054 33.9917Z" fill="#0ACF83"/>
<path d="M11 20.4961C11 18.014 13.015 15.999 15.4971 15.999H19.9941V24.9979H15.4971C13.015 24.9979 11 22.9829 11 20.5008V20.4961Z" fill="#A259FF"/>
<path d="M11 11.4971C11 9.01495 13.015 7 15.4971 7H19.9941V15.9989H15.4971C13.015 15.9989 11 13.9839 11 11.5018V11.4971Z" fill="#F24E1E"/>
<path d="M19.9585 7H24.4556C26.9377 7 28.9526 9.01495 28.9526 11.4971C28.9526 13.9792 26.9377 15.9941 24.4556 15.9941H19.9585V7Z" fill="#FF7262"/>
<path d="M28.9998 20.4961C28.9998 22.9782 26.9849 24.9932 24.5028 24.9932C22.0206 24.9932 19.9585 22.9782 19.9585 20.4961C19.9585 18.014 21.9734 15.999 24.4556 15.999C26.9377 15.999 28.9526 18.014 28.9526 20.4961H28.9998Z" fill="#1ABCFE"/>
</svg>
