<svg width="40" height="40" viewBox="0 0 40 40" fill="none" xmlns="http://www.w3.org/2000/svg">
<rect width="40" height="40" rx="12" fill="#161614"/>
<path d="M19.8417 6C12.1981 6 6 12.1971 6 19.8417C6 25.9575 9.96607 31.1459 15.4659 32.9762C16.1576 33.1043 16.4116 32.676 16.4116 32.3103C16.4116 31.9803 16.3987 30.8898 16.3928 29.7333C12.5419 30.5706 11.7294 28.1001 11.7294 28.1001C11.0997 26.5002 10.1925 26.0748 10.1925 26.0748C8.93672 25.2157 10.2872 25.2333 10.2872 25.2333C11.6772 25.331 12.4091 26.6598 12.4091 26.6598C13.6436 28.7759 15.6472 28.164 16.437 27.8105C16.5612 26.9157 16.92 26.3052 17.3158 25.9596C14.2414 25.6095 11.0094 24.4226 11.0094 19.1189C11.0094 17.6077 11.5502 16.3729 12.4357 15.4035C12.2919 15.0549 11.8182 13.6471 12.5697 11.7405C12.5697 11.7405 13.7321 11.3684 16.3772 13.1593C17.4812 12.8525 18.6654 12.6988 19.8417 12.6936C21.0181 12.6988 22.2031 12.8525 23.3093 13.1593C25.9513 11.3684 27.112 11.7405 27.112 11.7405C27.8654 13.6471 27.3914 15.0549 27.2477 15.4035C28.1352 16.3729 28.6722 17.6076 28.6722 19.1189C28.6722 24.4352 25.4341 25.6059 22.3519 25.9485C22.8484 26.378 23.2908 27.2205 23.2908 28.5118C23.2908 30.3638 23.2747 31.8544 23.2747 32.3103C23.2747 32.6787 23.5238 33.1103 24.2255 32.9744C29.7223 31.142 33.6834 25.9554 33.6834 19.8417C33.6834 12.1971 27.4861 6 19.8417 6Z" fill="white"/>
</svg>
