<svg width="40" height="40" viewBox="0 0 40 40" fill="none" xmlns="http://www.w3.org/2000/svg">
<rect width="40" height="40" rx="12" fill="#FF0000"/>
<path d="M32.4914 13.8105C32.1976 12.7059 31.3285 11.8345 30.2227 11.5359C28.2232 11 20.201 11 20.201 11C20.201 11 12.1828 11 10.1793 11.5359C9.07754 11.8305 8.2084 12.7018 7.91052 13.8105C7.37598 15.815 7.37598 20 7.37598 20C7.37598 20 7.37598 24.185 7.91052 26.1895C8.20432 27.2941 9.07346 28.1655 10.1793 28.4641C12.1828 29 20.201 29 20.201 29C20.201 29 28.2232 29 30.2227 28.4641C31.3244 28.1695 32.1936 27.2982 32.4914 26.1895C33.026 24.185 33.026 20 33.026 20C33.026 20 33.026 15.815 32.4914 13.8105Z" fill="white"/>
<path d="M17.6384 23.8577L24.3019 20L17.6384 16.1423V23.8577Z" fill="#FF0000"/>
</svg>
