<svg width="63" height="63" viewBox="0 0 63 63" fill="none" xmlns="http://www.w3.org/2000/svg">
<path fill-rule="evenodd" clip-rule="evenodd" d="M56.5945 1.2845C50.071 1.51093 44.7095 3.7915 40.2745 8.22652C36.2556 12.2453 33.1729 19.6683 32.7128 26.4355L32.4634 30.1001L35.6497 29.8134C37.4017 29.6557 40.3284 29.154 42.1528 28.6994C54.8825 25.5234 62.8905 14.3276 61.1531 2.13563C61.0312 1.28222 60.3466 1.15376 56.5945 1.2845ZM17.1769 3.13322C15.8548 2.38999 14.242 1.61241 13.593 1.40514C11.2762 0.667197 5.77492 0.14891 3.3177 0.437433L0.819343 0.73095L0.783945 5.29569C0.759763 8.41356 1.16913 11.1127 2.07499 13.8119C3.3146 17.5054 3.61113 17.9716 6.61844 20.9548C8.76449 23.0831 10.7019 24.5773 12.4362 25.4409C16.4123 27.4212 22.7532 29.265 26.308 29.4746L29.5057 29.6631L29.12 25.7263C28.1116 15.4372 23.4828 6.68062 17.1769 3.13322ZM53.4017 39.0115C50.7751 37.1647 46.6672 35.3898 42.8194 34.4398C39.3726 33.5882 33.2928 32.8983 32.9149 33.3159C32.499 33.775 33.6131 41.3188 34.4973 44.0297C38.5098 56.332 46.2627 62.114 58.4631 61.9024L62.042 61.84L62.0756 57.5816C62.1453 48.6905 59.689 43.4323 53.4017 39.0115ZM25.7863 33.1098C12.3033 34.6119 2.46463 42.8245 0.460416 54.25C0.151224 56.0132 0.0147329 58.5408 0.156867 59.8668L0.415162 62.2771L3.59678 62.3054C17.4598 62.4283 28.5162 51.2446 29.3625 36.2429L29.5632 32.6893L25.7863 33.1098Z" fill="currentColor"/>
</svg>
