<svg width="68" height="74" viewBox="0 0 68 74" fill="none" xmlns="http://www.w3.org/2000/svg">
<path fill-rule="evenodd" clip-rule="evenodd" d="M32.3244 5.37305C28.5245 19.0883 18.0397 30.7349 5.31491 35.3739L0.983398 36.9538L3.41246 37.7944C12.6585 40.9956 22.7087 49.0435 27.3507 56.963C28.7479 59.3471 30.7623 63.9711 31.827 67.2386L33.7637 73.1808L34.6614 69.1704C37.2468 57.6194 46.4107 45.9201 56.8484 40.845C59.792 39.4143 63.2922 38.0171 64.6273 37.7416L67.0542 37.2407L61.9542 35.2561C54.8604 32.496 50.5717 29.566 45.032 23.6931C39.9384 18.2941 35.8531 10.8827 34.3909 4.38969L33.5867 0.818848L32.3244 5.37305Z" fill="currentColor"/>
</svg>
