<svg width="21" height="20" viewBox="0 0 21 20" fill="none" xmlns="http://www.w3.org/2000/svg">
<path d="M14.25 11.6667H14.2583M3 4.16667V15.8333C3 16.7538 3.74619 17.5 4.66667 17.5H16.3333C17.2538 17.5 18 16.7538 18 15.8333V7.5C18 6.57953 17.2538 5.83333 16.3333 5.83333L4.66667 5.83333C3.74619 5.83333 3 5.08714 3 4.16667ZM3 4.16667C3 3.24619 3.74619 2.5 4.66667 2.5H14.6667M14.6667 11.6667C14.6667 11.8968 14.4801 12.0833 14.25 12.0833C14.0199 12.0833 13.8333 11.8968 13.8333 11.6667C13.8333 11.4365 14.0199 11.25 14.25 11.25C14.4801 11.25 14.6667 11.4365 14.6667 11.6667Z" stroke="#573DF5" stroke-width="1.66667" stroke-linecap="round" stroke-linejoin="round"/>
</svg>
