<svg width="68" height="68" viewBox="0 0 68 68" fill="none" xmlns="http://www.w3.org/2000/svg">
<g filter="url(#filter0_dd_95_475)">
<path d="M6 30C6 14.536 18.536 2 34 2C49.464 2 62 14.536 62 30C62 45.464 49.464 58 34 58C18.536 58 6 45.464 6 30Z" fill="#F2F4F7" shape-rendering="crispEdges"/>
<path d="M6.375 30C6.375 14.7431 18.7431 2.375 34 2.375C49.2569 2.375 61.625 14.7431 61.625 30C61.625 45.2569 49.2569 57.625 34 57.625C18.7431 57.625 6.375 45.2569 6.375 30Z" stroke="black" stroke-opacity="0.08" stroke-width="0.75"/>
<path d="M44.6663 42C44.6663 40.1392 44.6663 39.2089 44.4367 38.4518C43.9196 36.7473 42.5857 35.4134 40.8812 34.8963C40.1241 34.6667 39.1938 34.6667 37.333 34.6667H30.6663C28.8056 34.6667 27.8752 34.6667 27.1182 34.8963C25.4136 35.4134 24.0797 36.7473 23.5627 38.4518C23.333 39.2089 23.333 40.1392 23.333 42M39.9997 24C39.9997 27.3137 37.3134 30 33.9997 30C30.686 30 27.9997 27.3137 27.9997 24C27.9997 20.6863 30.686 18 33.9997 18C37.3134 18 39.9997 20.6863 39.9997 24Z" stroke="#667085" stroke-width="2.66667" stroke-linecap="round" stroke-linejoin="round"/>
</g>
<defs>
<filter id="filter0_dd_95_475" x="0" y="0" width="68" height="68" filterUnits="userSpaceOnUse" color-interpolation-filters="sRGB">
<feFlood flood-opacity="0" result="BackgroundImageFix"/>
<feColorMatrix in="SourceAlpha" type="matrix" values="0 0 0 0 0 0 0 0 0 0 0 0 0 0 0 0 0 0 127 0" result="hardAlpha"/>
<feMorphology radius="2" operator="erode" in="SourceAlpha" result="effect1_dropShadow_95_475"/>
<feOffset dy="2"/>
<feGaussianBlur stdDeviation="2"/>
<feComposite in2="hardAlpha" operator="out"/>
<feColorMatrix type="matrix" values="0 0 0 0 0.0627451 0 0 0 0 0.0941176 0 0 0 0 0.156863 0 0 0 0.06 0"/>
<feBlend mode="normal" in2="BackgroundImageFix" result="effect1_dropShadow_95_475"/>
<feColorMatrix in="SourceAlpha" type="matrix" values="0 0 0 0 0 0 0 0 0 0 0 0 0 0 0 0 0 0 127 0" result="hardAlpha"/>
<feMorphology radius="2" operator="erode" in="SourceAlpha" result="effect2_dropShadow_95_475"/>
<feOffset dy="4"/>
<feGaussianBlur stdDeviation="4"/>
<feComposite in2="hardAlpha" operator="out"/>
<feColorMatrix type="matrix" values="0 0 0 0 0.0627451 0 0 0 0 0.0941176 0 0 0 0 0.156863 0 0 0 0.1 0"/>
<feBlend mode="normal" in2="effect1_dropShadow_95_475" result="effect2_dropShadow_95_475"/>
<feBlend mode="normal" in="SourceGraphic" in2="effect2_dropShadow_95_475" result="shape"/>
</filter>
</defs>
</svg>
