<svg width="44" height="44" viewBox="0 0 44 44" fill="none" xmlns="http://www.w3.org/2000/svg">
<rect width="44" height="44" rx="22" fill="#CCD1DA"/>
<path d="M20.4609 11.4738C20.4609 11.2251 20.2399 11.0335 19.996 11.0824C16.5222 11.7793 13.927 14.5505 13.927 17.863C13.927 21.1755 16.5222 23.9467 19.996 24.6436C20.2399 24.6925 20.4609 24.5009 20.4609 24.2522L20.4609 11.4738Z" fill="#94A3B8"/>
<path fill-rule="evenodd" clip-rule="evenodd" d="M26.6188 11.0026C26.6364 11.0023 26.6539 11.0022 26.6715 11.0022C28.4758 11.0022 29.9385 12.4649 29.9385 14.2692C29.9385 16.0735 28.4758 17.5361 26.6715 17.5361C25.3005 17.5361 24.1268 16.6916 23.6421 15.4944C23.2139 14.9906 22.8582 14.7864 22.1012 14.5385C21.8481 14.4556 21.5966 14.3511 21.5425 14.3062C21.4884 14.2615 21.4441 14.2152 21.4441 14.2035C21.4441 14.0498 21.6217 13.9311 22.0817 13.7777C22.8998 13.5048 23.3513 13.2187 23.7018 12.7512C23.8677 12.5298 24.018 12.3415 24.1604 12.1792C24.255 12.0656 24.3572 11.9586 24.4662 11.8588C24.7175 11.6204 24.9606 11.4541 25.2448 11.3139C25.6917 11.0936 26.1601 10.9955 26.6188 11.0026Z" fill="#94A3B8"/>
<path d="M23.4033 32.5281C23.4033 32.7769 23.6244 32.9685 23.8683 32.9196C27.342 32.2227 29.9373 29.4514 29.9373 26.1389C29.9373 22.8264 27.342 20.0552 23.8683 19.3583C23.6244 19.3094 23.4033 19.501 23.4033 19.7498L23.4033 32.5281Z" fill="#94A3B8"/>
<path fill-rule="evenodd" clip-rule="evenodd" d="M17.2364 32.9995C17.2216 32.9997 17.2067 32.9998 17.1918 32.9998C15.3875 32.9998 13.9248 31.5371 13.9248 29.7328C13.9248 27.9285 15.3875 26.4658 17.1918 26.4658C18.563 26.4658 19.7369 27.3106 20.2214 28.508C20.6495 29.0117 21.0052 29.2159 21.762 29.4637C22.0152 29.5466 22.2667 29.6511 22.3208 29.696C22.3749 29.7407 22.4192 29.787 22.4192 29.7987C22.4192 29.9524 22.2415 30.0711 21.7815 30.2245C20.9634 30.4974 20.512 30.7835 20.1615 31.251C19.994 31.4745 19.8424 31.6642 19.6989 31.8276C19.6075 31.9368 19.5091 32.04 19.4043 32.1365C19.1504 32.3786 18.9054 32.5468 18.6184 32.6883C18.169 32.9099 17.6977 33.0079 17.2364 32.9995Z" fill="#94A3B8"/>
</svg>
