<svg width="32" height="32" viewBox="0 0 32 32" fill="none" xmlns="http://www.w3.org/2000/svg">
<g clip-path="url(#clip0_1133_2121)">
<path d="M16 0C20.4175 0 24.4181 1.79125 27.3131 4.68687C30.2088 7.58187 32 11.5825 32 16C32 20.4175 30.2088 24.4181 27.3131 27.3131C24.4181 30.2088 20.4175 32 16 32C11.5825 32 7.58187 30.2088 4.68687 27.3131C1.79125 24.4181 0 20.4175 0 16C0 11.5825 1.79125 7.58187 4.68687 4.68687C7.58187 1.79125 11.5825 0 16 0Z" fill="#344054"/>
<path d="M16 1.21729C20.0807 1.21729 23.7788 2.87229 26.4532 5.54666L26.5213 5.62041C29.155 8.29041 30.7819 11.956 30.7819 15.9992C30.7819 20.081 29.1263 23.7779 26.4519 26.4523L26.3775 26.5204C23.7075 29.1554 20.04 30.7823 16 30.7823C11.9232 30.7823 8.22628 29.1254 5.55128 26.4492C2.87378 23.7779 1.21753 20.081 1.21753 15.9992C1.21753 11.9173 2.87253 8.22104 5.5469 5.54666C8.22128 2.87229 11.9182 1.21729 16 1.21729Z" fill="white"/>
<path d="M16.0001 2.47461C18.4676 2.47461 20.7807 3.13586 22.7732 4.28961H9.22697C11.2195 3.13586 13.5326 2.47461 16.0001 2.47461ZM25.7401 6.61711C26.3126 7.20961 26.8288 7.85586 27.2851 8.54523H4.71447C5.1701 7.85211 5.68885 7.20398 6.25947 6.61711H25.7401ZM28.5157 10.8652C28.772 11.4884 28.982 12.1327 29.1432 12.7977H2.85697C3.0201 12.134 3.23385 11.4915 3.48447 10.8652H28.5157ZM29.4957 15.1202C29.5145 15.4127 29.5251 15.7059 29.5251 15.9996C29.5251 16.354 29.5113 16.7059 29.4845 17.0527H2.51572C2.48947 16.7034 2.4751 16.349 2.4751 15.9996C2.4751 15.704 2.48572 15.4109 2.50447 15.1202H29.4957ZM29.1007 19.374C28.9314 20.0345 28.7116 20.6809 28.4432 21.3077H3.55697C3.29135 20.6815 3.0676 20.0334 2.89947 19.374H29.1007ZM27.1695 23.6277C26.6926 24.324 26.1538 24.9752 25.5582 25.5696H6.44197C5.84822 24.9752 5.3076 24.324 4.83072 23.6277H27.1695ZM22.4651 27.8827C20.5363 28.9309 18.3301 29.5259 16.0001 29.5259C13.6582 29.5259 11.4551 28.9302 9.5351 27.8827H22.4651Z" fill="#B22234"/>
<path d="M16.7601 2.49648V17.1471H2.52447C2.49135 16.7677 2.4751 16.3871 2.4751 15.9996C2.4751 8.53023 8.5301 2.47461 16.0001 2.47461C16.2551 2.47461 16.5088 2.48273 16.7601 2.49648Z" fill="#3C3B6E"/>
<path d="M3.17571 11.6912L3.23696 11.8824L3.13696 11.8087L3.17571 11.6912ZM15.0063 14.8106L15.507 16.3518L14.197 15.3987H15.8151L14.5045 16.3518L15.0063 14.8106ZM15.0063 11.8318L15.507 13.3706L14.197 12.4193H15.8151L14.5045 13.3706L15.0063 11.8318ZM15.0063 8.85119L15.507 10.3918L14.197 9.43807H15.8151L14.5045 10.3918L15.0063 8.85119ZM15.0063 5.87244L15.507 7.41119L14.197 6.45932H15.8151L14.5045 7.41119L15.0063 5.87244ZM15.0063 2.89307L15.507 4.43244L14.197 3.47994H15.8151L14.5045 4.43244L15.0063 2.89307ZM13.2513 13.3212L13.7532 14.8612L12.442 13.9081H14.0601L12.7563 14.8612L13.2513 13.3212ZM13.2513 10.3418L13.7532 11.8824L12.442 10.9287H14.0601L12.7563 11.8824L13.2513 10.3418ZM13.2513 7.36307L13.7532 8.90182L12.442 7.94994H14.0601L12.7563 8.90182L13.2513 7.36307ZM13.2513 4.38182L13.7532 5.92244L12.442 4.96932H14.0601L12.7563 5.92244L13.2513 4.38182ZM11.5032 14.8106L12.0051 16.3518L10.6938 15.3987H12.3132L11.0026 16.3518L11.5032 14.8106ZM11.5032 11.8318L12.0051 13.3706L10.6938 12.4193H12.3132L11.0026 13.3706L11.5032 11.8318ZM11.5032 8.85119L12.0051 10.3918L10.6938 9.43807H12.3132L11.0026 10.3918L11.5032 8.85119ZM11.5032 5.87244L12.0051 7.41119L10.6938 6.45932H12.3132L11.0026 7.41119L11.5032 5.87244ZM11.6057 3.20494L12.0051 4.43244L10.7595 3.52744L10.8757 3.47994H12.3132L11.0026 4.43244L11.3757 3.28619L11.6057 3.20494ZM9.74884 13.3212L10.2495 14.8612L8.93884 13.9081H10.5582L9.24696 14.8612L9.74884 13.3212ZM9.74884 10.3418L10.2495 11.8824L8.93884 10.9287H10.5582L9.24696 11.8824L9.74884 10.3418ZM9.74884 7.36307L10.2495 8.90182L8.93884 7.94994H10.5582L9.24696 8.90182L9.74884 7.36307ZM9.74884 4.38182L10.2495 5.92244L8.93884 4.96932H10.5582L9.24696 5.92244L9.74884 4.38182ZM8.00071 14.8106L8.49571 16.3518L7.19196 15.3987H8.81009L7.49884 16.3518L8.00071 14.8106ZM8.00071 11.8318L8.49571 13.3706L7.19196 12.4193H8.81009L7.49884 13.3706L8.00071 11.8318ZM8.00071 8.85119L8.49571 10.3918L7.19196 9.43807H8.81009L7.49884 10.3918L8.00071 8.85119ZM8.00071 5.87244L8.49571 7.41119L7.19196 6.45932H8.81009L7.49884 7.41119L8.00071 5.87244ZM6.24571 13.3212L6.74759 14.8612L5.43696 13.9081H7.05571L5.74509 14.8612L6.24571 13.3212ZM6.24571 10.3418L6.74759 11.8824L5.43696 10.9287H7.05571L5.74509 11.8824L6.24571 10.3418ZM6.24571 7.36307L6.74759 8.90182L5.43696 7.94994H7.05571L5.74509 8.90182L6.24571 7.36307ZM4.49196 14.8106L4.99259 16.3518L3.68134 15.3987H5.30759L3.99009 16.3518L4.49196 14.8106ZM4.49196 11.8318L4.99259 13.3706L3.68134 12.4193H5.30759L3.99009 13.3706L4.49196 11.8318ZM4.50071 8.87807L4.99259 10.3918L4.03259 9.69369L4.17009 9.43807H5.30759L3.99009 10.3918L4.46509 8.93432L4.50071 8.87807ZM2.74384 13.3212L3.23696 14.8612L2.57259 14.3756L2.54321 14.6424L3.55259 13.9081H2.63509C2.66509 13.7193 2.69884 13.5318 2.73634 13.3462L2.74384 13.3212ZM3.45884 10.9287H3.55259L3.41884 11.0268L3.45884 10.9287Z" fill="white"/>
</g>
<defs>
<clipPath id="clip0_1133_2121">
<rect width="32" height="32" fill="white"/>
</clipPath>
</defs>
</svg>
