<svg width="40" height="41" viewBox="0 0 40 41" fill="none" xmlns="http://www.w3.org/2000/svg">
<circle cx="20" cy="20.5" r="20" fill="#F4F4F5"/>
<path fill-rule="evenodd" clip-rule="evenodd" d="M18.9548 10.2722C18.5981 10.3198 17.9308 10.4929 17.472 10.6568C14.2751 11.7988 12.2492 14.8331 12.4359 18.2001C12.6267 21.6433 15.125 24.5355 18.4974 25.2173C19.3953 25.3988 21.1466 25.3502 21.9864 25.1205C24.5314 24.4244 26.5684 22.3781 27.3391 19.7437C27.5129 19.1495 27.5451 18.843 27.5428 17.8032C27.54 16.4547 27.4425 15.9452 26.971 14.8133C26.0812 12.6772 24.0871 10.9765 21.8449 10.4413C20.9328 10.2236 19.8098 10.1579 18.9548 10.2722ZM17.3087 26.8836C14.4108 27.3853 11.892 28.6594 10.0148 30.5734C8.635 31.9801 7.62939 33.932 7.42895 35.5925L7.36841 36.094L7.88154 36.4992C9.38748 37.6885 11.8125 38.9306 13.9273 39.5957C16.2331 40.3209 18.0532 40.5619 20.6625 40.4872C22.2488 40.4419 22.704 40.3955 23.821 40.1656C26.9971 39.5119 30.0989 38.1232 32.2514 36.3911L32.6316 36.0853L32.5696 35.5881C32.4359 34.5148 31.9813 33.3147 31.2923 32.216C30.525 30.9926 29.5424 29.9951 28.1474 29.0238C27.0719 28.275 25.0213 27.3843 23.6191 27.057C21.7341 26.6171 19.2439 26.5486 17.3087 26.8836Z" fill="#E4E4E7"/>
</svg>
