<svg width="32" height="32" viewBox="0 0 32 32" fill="none" xmlns="http://www.w3.org/2000/svg">
<path d="M15 30C23.3125 30 30 23.3125 30 15C30 6.68745 23.3125 0 15 0C6.68745 0 0 6.68745 0 15C0 23.3125 6.68745 30 15 30Z" fill="#2775CA"/>
<path d="M19.1252 17.375C19.1252 15.1876 17.8127 14.4376 15.1877 14.1251C13.3127 13.8751 12.9377 13.3751 12.9377 12.5C12.9377 11.6249 13.5627 11.0626 14.8127 11.0626C15.9377 11.0626 16.5627 11.4376 16.8752 12.3751C16.9377 12.5626 17.1252 12.6875 17.3127 12.6875H18.3126C18.5627 12.6875 18.7502 12.5 18.7502 12.2501V12.1876C18.5001 10.8125 17.3751 9.75005 15.9377 9.6251V8.1251C15.9377 7.87505 15.7502 7.68755 15.4377 7.625H14.5002C14.2502 7.625 14.0627 7.8125 14.0001 8.1251V9.56255C12.1251 9.8126 10.9377 11.0626 10.9377 12.6251C10.9377 14.6876 12.1877 15.5 14.8127 15.8126C16.5627 16.1251 17.1252 16.5001 17.1252 17.5001C17.1252 18.5002 16.2501 19.1876 15.0627 19.1876C13.4376 19.1876 12.8751 18.5 12.6876 17.5625C12.6252 17.3126 12.4377 17.1875 12.2502 17.1875H11.1876C10.9377 17.1875 10.7502 17.375 10.7502 17.6251V17.6876C11.0001 19.25 12.0002 20.375 14.0627 20.6876V22.1876C14.0627 22.4375 14.2502 22.625 14.5626 22.6876H15.5001C15.7502 22.6876 15.9377 22.5001 16.0002 22.1876V20.6876C17.8752 20.375 19.1252 19.0625 19.1252 17.375Z" fill="white"/>
<path d="M11.8125 23.9374C6.9375 22.1875 4.43745 16.75 6.25005 11.9374C7.18755 9.3124 9.25005 7.31245 11.8125 6.37495C12.0625 6.25 12.1875 6.0625 12.1875 5.7499V4.87495C12.1875 4.6249 12.0625 4.4374 11.8125 4.375C11.7499 4.375 11.625 4.375 11.5624 4.4374C5.625 6.3124 2.37495 12.625 4.24995 18.5624C5.37495 22.0624 8.0625 24.7499 11.5624 25.8749C11.8125 25.9999 12.0625 25.8749 12.1249 25.6249C12.1875 25.5625 12.1875 25.4999 12.1875 25.375V24.4999C12.1875 24.3124 12 24.0625 11.8125 23.9374ZM18.4375 4.4374C18.1875 4.31245 17.9374 4.4374 17.875 4.68745C17.8125 4.75 17.8125 4.8124 17.8125 4.9375V5.81245C17.8125 6.0625 18 6.3124 18.1875 6.4375C23.0625 8.1874 25.5625 13.6249 23.7499 18.4375C22.8124 21.0625 20.7499 23.0624 18.1875 23.9999C17.9374 24.1249 17.8125 24.3124 17.8125 24.625V25.4999C17.8125 25.75 17.9374 25.9375 18.1875 25.9999C18.25 25.9999 18.375 25.9999 18.4375 25.9375C24.375 24.0625 27.625 17.7499 25.75 11.8124C24.625 8.24995 21.8749 5.5624 18.4375 4.4374Z" fill="white"/>
<path d="M23.7501 30.625C27.5471 30.625 30.6251 27.547 30.6251 23.75C30.6251 19.953 27.5471 16.875 23.7501 16.875C19.9532 16.875 16.8751 19.953 16.8751 23.75C16.8751 27.547 19.9532 30.625 23.7501 30.625Z" fill="#0052FF" stroke="white" stroke-width="1.25"/>
<path d="M23.7776 28.0935C26.2001 28.0935 28.1638 26.1331 28.1638 23.715C28.1638 21.2968 26.2001 19.3364 23.7776 19.3364C21.4794 19.3364 19.594 21.1009 19.4067 23.3469H25.2042V24.083H19.4067C19.594 26.329 21.4794 28.0935 23.7776 28.0935Z" fill="white"/>
</svg>
