<svg width="21" height="21" viewBox="0 0 21 21" fill="none" xmlns="http://www.w3.org/2000/svg">
<path d="M0.5 5.5L4.91 1.09C5.09606 0.902832 5.31732 0.754338 5.56103 0.653078C5.80474 0.551817 6.06609 0.499792 6.33 0.500001H14.67C14.9339 0.499792 15.1953 0.551817 15.439 0.653078C15.6827 0.754338 15.9039 0.902832 16.09 1.09L20.5 5.5M0.5 5.5H20.5M0.5 5.5V8.5C0.5 9.03043 0.710714 9.53914 1.08579 9.91421C1.46086 10.2893 1.96957 10.5 2.5 10.5M20.5 5.5V8.5C20.5 9.03043 20.2893 9.53914 19.9142 9.91421C19.5391 10.2893 19.0304 10.5 18.5 10.5M2.5 10.5V18.5C2.5 19.0304 2.71071 19.5391 3.08579 19.9142C3.46086 20.2893 3.96957 20.5 4.5 20.5H16.5C17.0304 20.5 17.5391 20.2893 17.9142 19.9142C18.2893 19.5391 18.5 19.0304 18.5 18.5V10.5M2.5 10.5C3.08426 10.4678 3.64227 10.2467 4.09 9.87C4.20932 9.78378 4.35279 9.73736 4.5 9.73736C4.64721 9.73736 4.79068 9.78378 4.91 9.87C5.35773 10.2467 5.91574 10.4678 6.5 10.5C7.08426 10.4678 7.64227 10.2467 8.09 9.87C8.20932 9.78378 8.35279 9.73736 8.5 9.73736C8.64721 9.73736 8.79068 9.78378 8.91 9.87C9.35773 10.2467 9.91574 10.4678 10.5 10.5C11.0843 10.4678 11.6423 10.2467 12.09 9.87C12.2093 9.78378 12.3528 9.73736 12.5 9.73736C12.6472 9.73736 12.7907 9.78378 12.91 9.87C13.3577 10.2467 13.9157 10.4678 14.5 10.5C15.0843 10.4678 15.6423 10.2467 16.09 9.87C16.2093 9.78378 16.3528 9.73736 16.5 9.73736C16.6472 9.73736 16.7907 9.78378 16.91 9.87C17.3577 10.2467 17.9157 10.4678 18.5 10.5M13.5 20.5V16.5C13.5 15.9696 13.2893 15.4609 12.9142 15.0858C12.5391 14.7107 12.0304 14.5 11.5 14.5H9.5C8.96957 14.5 8.46086 14.7107 8.08579 15.0858C7.71071 15.4609 7.5 15.9696 7.5 16.5V20.5" stroke="#09090B" stroke-linecap="round" stroke-linejoin="round"/>
</svg>
