<svg width="44" height="44" viewBox="0 0 44 44" fill="none" xmlns="http://www.w3.org/2000/svg">
<rect width="44" height="44" rx="22" fill="black"/>
<path d="M20.4614 11.4741C20.4614 11.2253 20.2404 11.0337 19.9965 11.0826C16.5227 11.7795 13.9275 14.5507 13.9275 17.8632C13.9275 21.1757 16.5227 23.947 19.9965 24.6439C20.2404 24.6928 20.4614 24.5012 20.4614 24.2524L20.4614 11.4741Z" fill="white" style="mix-blend-mode:exclusion"/>
<path fill-rule="evenodd" clip-rule="evenodd" d="M26.6188 11.0026C26.6364 11.0023 26.6539 11.0022 26.6715 11.0022C28.4758 11.0022 29.9385 12.4649 29.9385 14.2692C29.9385 16.0735 28.4758 17.5361 26.6715 17.5361C25.3005 17.5361 24.1268 16.6916 23.6421 15.4944C23.2139 14.9906 22.8582 14.7864 22.1012 14.5385C21.8481 14.4556 21.5966 14.3511 21.5425 14.3062C21.4884 14.2615 21.4441 14.2152 21.4441 14.2035C21.4441 14.0498 21.6217 13.9311 22.0817 13.7777C22.8998 13.5048 23.3513 13.2187 23.7018 12.7512C23.8677 12.5298 24.018 12.3415 24.1604 12.1792C24.255 12.0656 24.3572 11.9586 24.4662 11.8588C24.7175 11.6204 24.9606 11.4541 25.2448 11.3139C25.6917 11.0936 26.1601 10.9955 26.6188 11.0026Z" fill="white" style="mix-blend-mode:exclusion"/>
<path d="M23.4033 32.5281C23.4033 32.7769 23.6244 32.9685 23.8683 32.9196C27.342 32.2227 29.9373 29.4514 29.9373 26.1389C29.9373 22.8264 27.342 20.0552 23.8683 19.3583C23.6244 19.3094 23.4033 19.501 23.4033 19.7498L23.4033 32.5281Z" fill="white" style="mix-blend-mode:exclusion"/>
<path fill-rule="evenodd" clip-rule="evenodd" d="M17.2364 32.9996C17.2216 32.9998 17.2067 32.9999 17.1918 32.9999C15.3875 32.9999 13.9248 31.5372 13.9248 29.7329C13.9248 27.9286 15.3875 26.4659 17.1918 26.4659C18.563 26.4659 19.7369 27.3107 20.2214 28.5082C20.6495 29.0118 21.0052 29.216 21.762 29.4639C22.0152 29.5467 22.2667 29.6512 22.3208 29.6961C22.3749 29.7409 22.4192 29.7871 22.4192 29.7989C22.4192 29.9526 22.2415 30.0712 21.7815 30.2247C20.9634 30.4976 20.512 30.7836 20.1615 31.2512C19.994 31.4746 19.8424 31.6643 19.6989 31.8277C19.6075 31.937 19.5091 32.0402 19.4043 32.1366C19.1504 32.3788 18.9054 32.5469 18.6184 32.6884C18.169 32.91 17.6977 33.008 17.2364 32.9996Z" fill="white" style="mix-blend-mode:exclusion"/>
</svg>
