<svg width="108" height="115" viewBox="0 0 108 115" fill="none" xmlns="http://www.w3.org/2000/svg">
<circle cx="54" cy="61" r="54" fill="#F4F4F5"/>
<circle cx="54" cy="61" r="54" fill="#8D8D8D"/>
<path d="M87.2847 88.6672L85.7924 89.5377C85.2685 89.8434 84.6934 90.0511 84.0951 90.1508L76.5636 91.4061C76.1891 91.4685 75.8087 91.488 75.4297 91.4644L70.1279 91.133C68.7685 91.048 67.5026 90.4122 66.6228 89.3724L64.0887 86.3776C63.0869 85.1936 62.6912 83.6118 63.0176 82.0956L77.7121 13.8371C77.8546 13.1754 78.5995 12.8434 79.1868 13.1799L80.5 13.9321V27.0001L80.9817 52.0502C80.9938 52.6778 81.1239 53.2976 81.3654 53.8771L82.5544 56.7308C83.1507 58.1618 83.0494 59.7885 82.2803 61.1346L82.1588 61.3472C81.727 62.1027 81.5 62.9578 81.5 63.8279V67.5001V72.9861C81.5 73.9733 81.2078 74.9383 80.6602 75.7596L79.8714 76.9429C79.6249 77.3126 79.4288 77.7136 79.2883 78.1352L78.9387 79.1838C78.7229 79.8314 79.2048 80.5001 79.8874 80.5001H84.0969C85.6158 80.5001 87.0524 81.1905 88.0012 82.3765L88.5 83C89.8418 84.8786 89.2788 87.504 87.2847 88.6672Z" fill="#6B6B6B"/>
<path d="M62.7597 49.384L58.9162 49.1278C57.6827 49.0455 56.5233 48.5092 55.662 47.6223L54.4728 46.3979C53.5313 45.4284 52.2374 44.8814 50.886 44.8814H50L76.9877 0.836099C77.2926 0.338492 77.8851 0.0962821 78.4513 0.237823C79.0629 0.390727 79.4845 0.950277 79.4627 1.58034L77.5 58.5L75.8913 56.8913C75.3062 56.3063 74.585 55.8755 73.7925 55.6378L71.0868 54.8261C70.3713 54.6114 69.713 54.2392 69.1602 53.7366L65.7904 50.6732C64.9548 49.9135 63.8865 49.4591 62.7597 49.384Z" fill="#C7C7C7"/>
<path d="M76.5 59.5V59.5C76.7916 58.9167 76.6595 58.1822 76.2139 57.706C75.4749 56.9163 74.4911 55.8475 74.0708 55.7214L71.087 54.8262C70.3714 54.6116 69.7131 54.2393 69.1603 53.7368L65.6551 50.5503C64.903 49.8665 63.9602 49.4282 62.9526 49.2938L58.496 48.6996C57.5204 48.5695 56.6049 48.1544 55.8643 47.5063C54.6887 46.4777 52.9089 45.7092 51.2058 45.5366C50.7554 45.4909 50.3201 45.6799 50 46V46" stroke="#E6E6E6" stroke-width="2"/>
<path d="M41.3577 53.3113L41.5465 53.3248C43.008 53.4291 44.3694 52.5764 44.9136 51.216C45.3581 50.1048 45.7047 48.8691 46.4628 47.9214L47.4386 46.7017C47.8099 46.2376 48.2609 45.8434 48.7705 45.5377L49.4576 45.1254C50.1283 44.723 50.925 44.585 51.6919 44.7384C52.549 44.9098 53.3461 45.3029 54.0039 45.8784L55.8642 47.5062C56.6049 48.1543 57.5204 48.5694 58.4959 48.6995L62.9526 49.2937C63.9602 49.428 64.9029 49.8663 65.6551 50.5501L69.1603 53.7366C69.7131 54.2392 70.3714 54.6114 71.0869 54.8261L74.0708 55.7212C74.6845 55.9054 75.2571 56.2057 75.7575 56.606L76.6157 57.3388C77.1831 57.8233 77.6349 58.4287 77.938 59.1105L77.9871 59.2211C78.6249 60.6561 78.5515 62.3073 77.7889 63.68L77.2016 64.737C76.7432 65.5621 76.5278 66.5001 76.5801 67.4426L76.8879 72.9825C76.9549 74.1881 76.245 75.302 75.1239 75.7504L74.3521 76.0592C73.1266 76.5494 72.6431 78.0289 73.3426 79.1482C78.5141 87.4226 67.9373 94.1193 60.2815 92.0313C57.3517 91.2323 54.6699 90.8592 51.6392 90.6261C50.5744 90.5442 49.5114 90.8054 48.6058 91.3714C46.1916 92.8803 44.222 93.1185 41.4433 93.3038C39.6273 93.4248 37.889 92.5496 36.9048 91.0186L34.912 87.9188C32.262 83.7966 27.8859 87.1459 24.1618 86L19.1881 84.0194C18.1669 83.7052 17.4368 82.8051 17.3401 81.741C17.1747 79.922 18.8663 78.4911 20.6327 78.956L24.1618 79.8847C25.6388 80.2734 27.2124 79.9657 28.4342 79.0493C33.3821 75.3384 28.7501 70.2142 31.6293 66.101L33.9165 62.8335C34.5878 61.8745 35.5784 61.326 36.5478 60.7201C37.716 59.99 38.2921 58.5991 37.9823 57.2569C37.4941 55.1412 39.1919 53.1566 41.3577 53.3113Z" fill="url(#paint0_linear_1769_92)"/>
<defs>
<linearGradient id="paint0_linear_1769_92" x1="3" y1="38.5" x2="49.5" y2="95.5" gradientUnits="userSpaceOnUse">
<stop stop-color="#D0ADFF"/>
<stop offset="1" stop-color="#781BF6"/>
</linearGradient>
</defs>
</svg>
