<?xml version="1.0" encoding="UTF-8"?>
<!DOCTYPE svg PUBLIC "-//W3C//DTD SVG 1.1//EN" "http://www.w3.org/Graphics/SVG/1.1/DTD/svg11.dtd">
<svg xmlns="http://www.w3.org/2000/svg" version="1.1" width="736px" height="736px" style="shape-rendering:geometricPrecision; text-rendering:geometricPrecision; image-rendering:optimizeQuality; fill-rule:evenodd; clip-rule:evenodd" xmlns:xlink="http://www.w3.org/1999/xlink">
<g><path style="opacity:1" fill="#fefefe" d="M -0.5,-0.5 C 115.167,-0.5 230.833,-0.5 346.5,-0.5C 228.018,9.05896 133.851,61.7256 64,157.5C 40.1404,193.563 22.4738,232.563 11,274.5C 8.8286,285.211 6.49527,295.877 4,306.5C 2.89214,317.71 1.39214,328.71 -0.5,339.5C -0.5,226.167 -0.5,112.833 -0.5,-0.5 Z"/></g>
<g><path style="opacity:1" fill="#d9dadf" d="M 346.5,-0.5 C 362.833,-0.5 379.167,-0.5 395.5,-0.5C 454.587,5.22076 509.587,23.2208 560.5,53.5C 642.948,106.063 697.448,179.396 724,273.5C 726.089,284.541 728.423,295.541 731,306.5C 732.108,317.71 733.608,328.71 735.5,339.5C 735.5,358.167 735.5,376.833 735.5,395.5C 723.398,509.92 671.398,601.086 579.5,669C 520.495,709.266 455.162,731.432 383.5,735.5C 372.833,735.5 362.167,735.5 351.5,735.5C 247.867,729.075 161.2,687.742 91.5,611.5C 57.8772,572.457 32.7106,528.457 16,479.5C 13.3779,468.052 10.3779,456.719 7,445.5C 3.98983,424.756 1.48983,404.09 -0.5,383.5C -0.5,368.833 -0.5,354.167 -0.5,339.5C 1.39214,328.71 2.89214,317.71 4,306.5C 6.49527,295.877 8.8286,285.211 11,274.5C 22.4738,232.563 40.1404,193.563 64,157.5C 133.851,61.7256 228.018,9.05896 346.5,-0.5 Z"/></g>
<g><path style="opacity:1" fill="#fefefe" d="M 395.5,-0.5 C 508.833,-0.5 622.167,-0.5 735.5,-0.5C 735.5,112.833 735.5,226.167 735.5,339.5C 733.608,328.71 732.108,317.71 731,306.5C 728.423,295.541 726.089,284.541 724,273.5C 697.448,179.396 642.948,106.063 560.5,53.5C 509.587,23.2208 454.587,5.22076 395.5,-0.5 Z"/></g>
<g><path style="opacity:1" fill="#8c8c8c" d="M 369.5,71.5 C 368.883,71.3893 368.383,71.056 368,70.5C 367.5,143.833 367.333,217.166 367.5,290.5C 307.198,317.649 246.865,344.816 186.5,372C 185.748,372.671 185.414,373.504 185.5,374.5C 184.427,373.749 184.26,372.749 185,371.5C 245.128,272.388 304.795,173.055 364,73.5C 365.34,72.1322 366.674,70.7989 368,69.5C 369.03,69.8361 369.53,70.5028 369.5,71.5 Z"/></g>
<g><path style="opacity:1" fill="#333333" d="M 369.5,72.5 C 430.144,171.771 490.31,271.438 550,371.5C 550.74,372.749 550.573,373.749 549.5,374.5C 549.586,373.504 549.252,372.671 548.5,372C 488.559,345.694 428.892,318.861 369.5,291.5C 369.5,290.833 369.167,290.5 368.5,290.5C 368.219,217.337 368.552,144.671 369.5,72.5 Z"/></g>
<g><path style="opacity:1" fill="#434343" d="M 369.5,71.5 C 369.5,71.8333 369.5,72.1667 369.5,72.5C 368.552,144.671 368.219,217.337 368.5,290.5C 368.167,290.5 367.833,290.5 367.5,290.5C 367.333,217.166 367.5,143.833 368,70.5C 368.383,71.056 368.883,71.3893 369.5,71.5 Z"/></g>
<g><path style="opacity:1" fill="#383838" d="M 367.5,290.5 C 367.5,354.167 367.5,417.833 367.5,481.5C 306.851,445.861 246.184,410.194 185.5,374.5C 185.414,373.504 185.748,372.671 186.5,372C 246.865,344.816 307.198,317.649 367.5,290.5 Z"/></g>
<g><path style="opacity:1" fill="#1e1e1f" d="M 367.5,290.5 C 367.833,290.5 368.167,290.5 368.5,290.5C 369.167,290.5 369.5,290.833 369.5,291.5C 368.335,353.665 368.168,415.999 369,478.5C 370.699,477.594 372.533,477.261 374.5,477.5C 372.664,479.588 370.331,480.921 367.5,481.5C 367.5,417.833 367.5,354.167 367.5,290.5 Z"/></g>
<g><path style="opacity:1" fill="#131313" d="M 369.5,291.5 C 428.892,318.861 488.559,345.694 548.5,372C 549.252,372.671 549.586,373.504 549.5,374.5C 491.331,409.085 432.998,443.419 374.5,477.5C 372.533,477.261 370.699,477.594 369,478.5C 368.168,415.999 368.335,353.665 369.5,291.5 Z"/></g>
<g><path style="opacity:1" fill="#fefefe" d="M -0.5,383.5 C 1.48983,404.09 3.98983,424.756 7,445.5C 10.3779,456.719 13.3779,468.052 16,479.5C 32.7106,528.457 57.8772,572.457 91.5,611.5C 161.2,687.742 247.867,729.075 351.5,735.5C 234.167,735.5 116.833,735.5 -0.5,735.5C -0.5,618.167 -0.5,500.833 -0.5,383.5 Z"/></g>
<g><path style="opacity:1" fill="#fefefe" d="M 735.5,395.5 C 735.5,508.833 735.5,622.167 735.5,735.5C 618.167,735.5 500.833,735.5 383.5,735.5C 455.162,731.432 520.495,709.266 579.5,669C 671.398,601.086 723.398,509.92 735.5,395.5 Z"/></g>
<g><path style="opacity:1" fill="#8c8c8c" d="M 368.5,515.5 C 367.838,540.429 367.505,565.429 367.5,590.5C 367.5,615.509 368.167,640.176 369.5,664.5C 369.265,665.097 368.765,665.43 368,665.5C 344.607,634.392 321.941,602.726 300,570.5C 260.609,516.975 222.276,462.975 185,408.5C 244.925,444.012 304.759,479.512 364.5,515C 365.793,515.49 367.127,515.657 368.5,515.5 Z"/></g>
<g><path style="opacity:1" fill="#333333" d="M 369.5,663.5 C 368.174,614.294 368.174,564.961 369.5,515.5C 422.437,484.026 475.437,452.526 528.5,421C 536.187,416.66 543.854,412.66 551.5,409C 490.614,493.712 429.948,578.546 369.5,663.5 Z"/></g>
<g><path style="opacity:1" fill="#434443" d="M 368.5,515.5 C 368.833,515.5 369.167,515.5 369.5,515.5C 368.174,564.961 368.174,614.294 369.5,663.5C 369.5,663.833 369.5,664.167 369.5,664.5C 368.167,640.176 367.5,615.509 367.5,590.5C 367.505,565.429 367.838,540.429 368.5,515.5 Z"/></g>
</svg>
