<svg width="19" height="19" viewBox="0 0 19 19" fill="none" xmlns="http://www.w3.org/2000/svg">
<path d="M14.7857 17.6429C14.7857 16.1273 14.1837 14.6739 13.112 13.6022C12.0404 12.5306 10.587 11.9286 9.07143 11.9286M9.07143 11.9286C7.55591 11.9286 6.10245 12.5306 5.03082 13.6022C3.95918 14.6739 3.35714 16.1273 3.35714 17.6429M9.07143 11.9286C11.1754 11.9286 12.881 10.223 12.881 8.11905C12.881 6.01511 11.1754 4.30952 9.07143 4.30952C6.96749 4.30952 5.2619 6.01511 5.2619 8.11905C5.2619 10.223 6.96749 11.9286 9.07143 11.9286ZM2.40476 0.5H15.7381C16.7901 0.5 17.6429 1.35279 17.6429 2.40476V15.7381C17.6429 16.7901 16.7901 17.6429 15.7381 17.6429H2.40476C1.35279 17.6429 0.5 16.7901 0.5 15.7381V2.40476C0.5 1.35279 1.35279 0.5 2.40476 0.5Z" stroke="#71717A" stroke-linecap="round" stroke-linejoin="round"/>
</svg>
