<svg width="382" height="382" viewBox="0 0 382 382" fill="none" xmlns="http://www.w3.org/2000/svg">
<rect width="382" height="382" rx="191" fill="#573DF5"/>
<path d="M176.021 88.1294C176.021 85.6984 173.861 83.8256 171.478 84.3038C137.528 91.1146 112.165 118.198 112.165 150.571C112.165 182.944 137.528 210.027 171.478 216.838C173.861 217.316 176.021 215.443 176.021 213.012L176.021 88.1294Z" fill="#D3EC30"/>
<path fill-rule="evenodd" clip-rule="evenodd" d="M236.216 83.5253C236.387 83.5226 236.558 83.5213 236.73 83.5213C254.363 83.5213 268.658 97.816 268.658 115.449C268.658 133.083 254.363 147.377 236.73 147.377C223.328 147.377 211.855 139.121 207.12 127.417C202.938 122.498 199.461 120.503 192.067 118.081C189.593 117.272 187.136 116.25 186.607 115.812C186.078 115.374 185.645 114.922 185.645 114.807C185.645 113.305 187.381 112.146 191.877 110.646C199.872 107.979 204.284 105.183 207.709 100.614C209.308 98.4821 210.758 96.6639 212.131 95.0931C213.097 93.9274 214.144 92.8315 215.264 91.814C217.69 89.5259 220.044 87.9219 222.79 86.5678C227.156 84.4152 231.733 83.4558 236.216 83.5253Z" fill="#D3EC30"/>
<path d="M204.802 293.896C204.802 296.327 206.963 298.2 209.346 297.722C243.295 290.911 268.658 263.828 268.658 231.455C268.658 199.082 243.295 171.999 209.346 165.188C206.963 164.71 204.802 166.583 204.802 169.014L204.802 293.896Z" fill="#D3EC30"/>
<path fill-rule="evenodd" clip-rule="evenodd" d="M144.569 298.5C144.411 298.502 144.253 298.504 144.095 298.504C126.462 298.504 112.167 284.209 112.167 266.576C112.167 248.942 126.462 234.647 144.095 234.647C157.497 234.647 168.971 242.905 173.705 254.61C177.887 259.529 181.364 261.524 188.757 263.945C191.231 264.755 193.689 265.776 194.218 266.214C194.747 266.652 195.18 267.104 195.18 267.219C195.18 268.721 193.444 269.88 188.948 271.38C180.953 274.047 176.541 276.843 173.115 281.412C171.509 283.555 170.052 285.38 168.673 286.957C167.724 288.1 166.696 289.176 165.599 290.177C163.159 292.484 160.795 294.097 158.035 295.458C153.656 297.617 149.064 298.576 144.569 298.5Z" fill="#D3EC30"/>
</svg>
