<svg width="18" height="18" viewBox="0 0 18 18" fill="none" xmlns="http://www.w3.org/2000/svg">
<path d="M7.38549 9.80535C7.72622 10.2677 8.16094 10.6503 8.66014 10.9272C9.15935 11.204 9.71138 11.3686 10.2788 11.4099C10.8462 11.4511 11.4157 11.368 11.9487 11.1662C12.4816 10.9644 12.9656 10.6486 13.3678 10.2402L15.748 7.82419C16.4707 7.06473 16.8705 6.04757 16.8615 4.99176C16.8524 3.93596 16.4352 2.926 15.6997 2.17941C14.9642 1.43282 13.9692 1.00933 12.929 1.00015C11.8889 0.990978 10.8868 1.39685 10.1386 2.13036L8.77396 3.50751M10.5591 8.19465C10.2184 7.73227 9.78368 7.34969 9.28448 7.07284C8.78527 6.796 8.23324 6.63137 7.66584 6.59012C7.09844 6.54887 6.52894 6.63197 5.99596 6.83378C5.46298 7.03559 4.97899 7.35139 4.57682 7.75976L2.1966 10.1758C1.47397 10.9353 1.07411 11.9524 1.08315 13.0082C1.09219 14.064 1.5094 15.074 2.24492 15.8206C2.98044 16.5672 3.97543 16.9907 5.01557 16.9998C6.05572 17.009 7.05781 16.6031 7.806 15.8696L9.16273 14.4925M17.083 11.1662L15.006 13.2745L12.929 15.3827L11.0409 13.4661" stroke="currentColor" stroke-width="1.5" stroke-linecap="round" stroke-linejoin="round"/>
</svg>
