<svg width="25" height="24" viewBox="0 0 25 24" fill="none" xmlns="http://www.w3.org/2000/svg">
<rect x="0.673828" width="24" height="24" rx="12" fill="#010110"/>
<path fill-rule="evenodd" clip-rule="evenodd" d="M12.2051 6.0066C12.1921 6.01136 12.1674 6.01313 12.1504 6.01053C12.1333 6.00793 12.0958 6.01174 12.0669 6.01899C12.0381 6.02624 11.9962 6.03218 11.9738 6.03218C11.9514 6.03218 11.9082 6.04041 11.8779 6.05049C11.8476 6.06056 11.8053 6.06884 11.7839 6.06889C11.7626 6.06894 11.7024 6.08371 11.6503 6.10171C11.5042 6.15212 11.4174 6.17435 11.4101 6.16326C11.4021 6.15133 10.7161 6.43346 10.7161 6.44865C10.7161 6.46078 10.6133 6.51732 10.4363 6.60257C10.3685 6.63522 10.2969 6.67438 10.2771 6.68959C10.2574 6.70479 10.2036 6.73602 10.1575 6.75899C10.1115 6.78196 10.054 6.81654 10.0298 6.83582C10.0056 6.8551 9.95245 6.88806 9.91162 6.90906C9.87079 6.93006 9.82921 6.95595 9.81922 6.96661C9.80924 6.97727 9.776 7.00016 9.74538 7.01749C9.71475 7.03482 9.66988 7.06487 9.64568 7.08429C9.62147 7.1037 9.58886 7.12585 9.57321 7.13353C9.55756 7.1412 9.5176 7.16859 9.48442 7.1944C9.45122 7.22021 9.40814 7.24917 9.38865 7.25877C9.36917 7.26836 9.34649 7.28613 9.33827 7.29826C9.33003 7.31039 9.30698 7.32758 9.28702 7.33647C9.26707 7.34535 9.23154 7.36991 9.20807 7.39106C9.18459 7.4122 9.14941 7.43954 9.12989 7.4518C9.11036 7.46407 9.09436 7.477 9.09432 7.48053C9.09428 7.48407 9.07398 7.5002 9.0492 7.51638C9.02443 7.53257 8.98437 7.56264 8.96019 7.5832C8.93601 7.60376 8.88736 7.64325 8.85208 7.67094C8.8168 7.69864 8.7747 7.73396 8.75852 7.74943C8.74234 7.76489 8.71417 7.78728 8.69591 7.79919C8.67766 7.81108 8.65205 7.83205 8.63901 7.84578C8.62597 7.85951 8.56621 7.91304 8.50623 7.96475C8.32239 8.12319 7.95316 8.47471 7.7949 8.64195C7.74535 8.69432 7.68346 8.7589 7.65738 8.78547C7.60305 8.84082 7.60681 8.83661 7.40826 9.06417C7.32619 9.15823 7.24837 9.25008 7.23533 9.26828C7.22229 9.28648 7.18815 9.32943 7.15946 9.36372C7.13077 9.39802 7.09022 9.44775 7.06935 9.47423C7.04849 9.50073 7.02401 9.5312 7.01496 9.54194C7.0059 9.55268 6.98123 9.58619 6.96011 9.6164C6.87871 9.7329 6.85622 9.76384 6.83279 9.7916C6.81945 9.80741 6.80854 9.82434 6.80854 9.82926C6.80854 9.83417 6.7968 9.85285 6.78245 9.87078C6.76811 9.8887 6.74143 9.92707 6.72318 9.95605C6.69225 10.0051 6.66819 10.0418 6.59203 10.1558C6.57549 10.1806 6.56194 10.2047 6.56194 10.2094C6.56194 10.214 6.55234 10.2305 6.5406 10.246C6.51883 10.2747 6.48855 10.3277 6.44256 10.4175C6.42838 10.4452 6.40919 10.4784 6.39991 10.4912C6.39064 10.5041 6.37564 10.533 6.3666 10.5553C6.35755 10.5777 6.3418 10.6076 6.33162 10.6218C6.32142 10.6361 6.30719 10.6666 6.29997 10.6897C6.29276 10.7129 6.27667 10.7486 6.2642 10.7692C6.25174 10.7897 6.23475 10.8292 6.22647 10.8569C6.21817 10.8846 6.19868 10.932 6.18316 10.9622C6.16764 10.9924 6.14795 11.048 6.13938 11.0858C6.12284 11.1588 6.09351 11.2323 6.07702 11.2422C6.05549 11.255 5.98505 11.698 6.00285 11.7086C6.00986 11.7128 6.01584 11.7541 6.0189 11.8194C6.02158 11.8766 6.02695 11.9276 6.03084 11.9326C6.03473 11.9377 6.04099 11.9623 6.04474 11.9872C6.04849 12.0123 6.05757 12.041 6.0649 12.0511C6.07224 12.0612 6.07824 12.0788 6.07824 12.0901C6.07824 12.1014 6.08676 12.1242 6.09718 12.1407C6.10759 12.1572 6.11613 12.1756 6.11614 12.1817C6.11628 12.2228 6.3046 12.4161 6.3763 12.4486C6.40016 12.4595 6.41968 12.4719 6.41968 12.4763C6.41968 12.4806 6.43675 12.4868 6.45762 12.49C6.47848 12.4933 6.49555 12.4998 6.49555 12.5045C6.49555 12.5093 6.51156 12.5156 6.53112 12.5187C6.55069 12.5217 6.57409 12.5281 6.58315 12.5328C6.59221 12.5376 6.61367 12.5415 6.63084 12.5415C6.648 12.5415 6.67096 12.5475 6.68184 12.5548C6.69396 12.563 6.72325 12.5681 6.75745 12.5678C6.78815 12.5676 6.86663 12.5694 6.93183 12.5719C7.01037 12.5748 7.07119 12.5721 7.11203 12.5641C7.14594 12.5574 7.21843 12.5493 7.27312 12.5461C7.34857 12.5417 7.39779 12.5326 7.47704 12.5083C8.09123 12.3199 8.11021 12.3134 8.26018 12.2396C8.34133 12.1996 8.45018 12.151 8.50205 12.1315C8.5544 12.1118 8.61958 12.079 8.64852 12.0579C8.67719 12.0369 8.74176 12.003 8.79201 11.9825C8.84226 11.962 8.89347 11.9347 8.90582 11.9217C8.91817 11.9087 8.96691 11.8806 9.01413 11.8593C9.06134 11.8379 9.11463 11.8076 9.13253 11.7918C9.15044 11.776 9.1993 11.7461 9.24111 11.7254C9.28292 11.7047 9.33207 11.6741 9.35033 11.6574C9.36859 11.6407 9.41127 11.614 9.44517 11.598C9.47908 11.582 9.51718 11.5565 9.52984 11.5413C9.54249 11.5261 9.5745 11.5043 9.60097 11.4929C9.62743 11.4815 9.66402 11.4569 9.68228 11.4383C9.70054 11.4198 9.73993 11.3926 9.76982 11.3779C9.79971 11.3632 9.83113 11.341 9.83964 11.3284C9.84816 11.3159 9.87982 11.2911 9.90999 11.2734C9.94016 11.2557 9.96716 11.2354 9.96998 11.2284C9.9728 11.2212 10.0051 11.1986 10.0417 11.1779C10.0783 11.1573 10.1138 11.1331 10.1205 11.1241C10.1273 11.1152 10.1499 11.0958 10.1707 11.0812C10.1916 11.0665 10.2283 11.0372 10.2522 11.0162C10.2762 10.9951 10.3082 10.9717 10.3234 10.9641C10.3385 10.9565 10.3626 10.9376 10.3769 10.9221C10.3912 10.9066 10.4199 10.8836 10.4405 10.8709C10.4612 10.8583 10.4827 10.8398 10.4883 10.8297C10.4939 10.8196 10.5212 10.7951 10.5489 10.7754C10.5939 10.7433 10.6011 10.7334 10.6156 10.6833C10.631 10.6305 10.6281 10.5921 10.6061 10.554C10.6044 10.551 10.5774 10.552 10.546 10.5561C10.4812 10.5647 10.2966 10.6471 10.2417 10.692C10.2234 10.7071 10.1611 10.7393 10.1033 10.7638C10.0456 10.7882 9.97832 10.8215 9.95391 10.8377C9.87298 10.8915 9.78753 10.9252 9.44043 11.0405C9.13435 11.1421 9.02344 11.1712 8.96837 11.1641C8.93949 11.1605 8.89487 11.1626 8.85995 11.1692C8.81158 11.1785 8.79629 11.1784 8.77724 11.1686C8.76319 11.1613 8.73874 11.1585 8.7159 11.1614C8.69135 11.1646 8.67188 11.1619 8.66084 11.1538C8.65144 11.1469 8.63267 11.1412 8.61914 11.141C8.6056 11.1409 8.5868 11.1325 8.57736 11.1224C8.56792 11.1123 8.55075 11.1041 8.53919 11.1041C8.51442 11.1041 8.42087 11.035 8.42087 11.0167C8.42087 11.0097 8.41268 10.9998 8.40267 10.9947C8.39266 10.9895 8.38153 10.9718 8.37793 10.9554C8.37434 10.939 8.36374 10.9173 8.35438 10.9073C8.32032 10.8706 8.31425 10.6468 8.3445 10.5428C8.3556 10.5046 8.3708 10.4397 8.37829 10.3986C8.38579 10.3574 8.40218 10.3067 8.41473 10.2859C8.42727 10.2651 8.44064 10.2337 8.44444 10.2161C8.44822 10.1984 8.46321 10.1634 8.47772 10.1382C8.49223 10.1131 8.50725 10.0822 8.51109 10.0696C8.51494 10.057 8.53995 10.0085 8.56669 9.96193C8.59343 9.9153 8.62597 9.85684 8.63901 9.83202C8.65205 9.8072 8.67183 9.77737 8.68297 9.76573C8.6941 9.7541 8.70634 9.73428 8.71014 9.72169C8.71394 9.7091 8.72491 9.6905 8.73449 9.68036C8.74407 9.67023 8.75845 9.64682 8.76645 9.62835C8.77444 9.60988 8.78514 9.59229 8.79022 9.58926C8.79531 9.58623 8.8239 9.54783 8.85378 9.50394C8.88365 9.46005 8.92795 9.39938 8.95221 9.36911C8.97647 9.33884 9.00191 9.30382 9.00874 9.29129C9.01557 9.27876 9.03227 9.25533 9.04585 9.23924C9.05943 9.22314 9.08335 9.19317 9.099 9.17265C9.17911 9.06756 9.40747 8.8063 9.52436 8.68602C9.56166 8.64764 9.62419 8.58213 9.66331 8.54046C9.76978 8.42705 10.07 8.13803 10.1992 8.02457C10.2618 7.96958 10.3279 7.91105 10.3462 7.89451C10.4074 7.83907 10.5998 7.67605 10.6641 7.62517C10.6991 7.59747 10.7475 7.5578 10.7717 7.537C10.7959 7.51621 10.8287 7.49149 10.8447 7.48207C10.8607 7.47266 10.8927 7.44953 10.9159 7.4307C10.966 7.38984 11.0298 7.34163 11.0794 7.30703C11.0993 7.29318 11.1334 7.26847 11.1553 7.25212C11.1771 7.23577 11.2185 7.2072 11.2471 7.18862C11.2758 7.17006 11.3218 7.13709 11.3494 7.11537C11.377 7.09366 11.4158 7.06793 11.4355 7.05822C11.4552 7.0485 11.4901 7.02548 11.5129 7.00704C11.5358 6.98861 11.583 6.95966 11.6179 6.9427C11.6528 6.92573 11.7021 6.89448 11.7275 6.87325C11.7528 6.85201 11.8077 6.81907 11.8494 6.80004C11.8912 6.78102 11.9488 6.74818 11.9775 6.72707C12.0062 6.70595 12.0979 6.65647 12.1814 6.61711C12.2649 6.57776 12.3591 6.5298 12.3908 6.51054C12.4543 6.47195 12.7933 6.33463 12.8832 6.31104C12.9298 6.29882 12.9446 6.28994 12.9648 6.2621L12.9894 6.22809L12.9648 6.19997C12.9512 6.18451 12.9305 6.16898 12.9188 6.16547C12.907 6.16198 12.893 6.15115 12.8876 6.14141C12.8822 6.13169 12.87 6.12373 12.8603 6.12373C12.8507 6.12373 12.8376 6.11755 12.8311 6.10999C12.8246 6.10244 12.8116 6.09626 12.8022 6.09626C12.7929 6.09626 12.771 6.08939 12.7536 6.08098C12.6944 6.05233 12.6891 6.05049 12.6658 6.05049C12.653 6.05049 12.6399 6.04637 12.6366 6.04133C12.6334 6.03629 12.6212 6.03218 12.6095 6.03218C12.5978 6.03218 12.5836 6.02763 12.5778 6.02208C12.5721 6.01653 12.5275 6.01082 12.4787 6.00938C12.4299 6.00795 12.39 6.00572 12.39 6.00442C12.39 5.99734 12.2251 5.99928 12.2051 6.0066ZM17.5218 6.90928C17.4862 6.9191 17.467 6.91985 17.4412 6.91237C17.414 6.90449 17.3932 6.90608 17.3361 6.92039C17.297 6.93019 17.233 6.93831 17.1938 6.93843C17.1431 6.93859 17.0942 6.94665 17.0231 6.96665C16.9684 6.98205 16.896 6.99622 16.8624 6.99815C16.7782 7.00298 16.7364 7.01347 16.4968 7.08982C16.382 7.12638 16.2551 7.16517 16.2148 7.17602C16.126 7.19988 15.8742 7.28936 15.8281 7.31342C15.8099 7.32294 15.7714 7.33963 15.7427 7.35049C15.7141 7.36137 15.6095 7.40319 15.5104 7.44343C15.4113 7.48366 15.2982 7.52957 15.2591 7.54542C15.2199 7.56128 15.158 7.59354 15.1215 7.61712C15.085 7.64069 15.0018 7.68338 14.9366 7.71198C14.8714 7.74058 14.7967 7.77981 14.7706 7.79917C14.7445 7.81851 14.672 7.85752 14.6094 7.88587C14.5468 7.9142 14.4806 7.9513 14.4624 7.96831C14.4441 7.98531 14.3929 8.01644 14.3486 8.03748C14.3042 8.05852 14.253 8.08948 14.2347 8.10627C14.2165 8.12306 14.1665 8.15347 14.1236 8.17386C14.0807 8.19425 14.0388 8.22093 14.0305 8.23318C14.0222 8.24542 13.9805 8.27275 13.9378 8.29391C13.8951 8.31507 13.843 8.3477 13.8222 8.36642C13.8013 8.38513 13.7629 8.41203 13.7368 8.42618C13.7107 8.44034 13.6716 8.46755 13.6499 8.48664C13.6281 8.50574 13.5873 8.53393 13.5591 8.54927C13.5309 8.56463 13.4975 8.5879 13.4848 8.60098C13.4722 8.61407 13.4336 8.64072 13.3991 8.66021C13.3646 8.67969 13.3294 8.70589 13.3209 8.71843C13.3124 8.73098 13.2851 8.75238 13.2603 8.766C13.2355 8.77963 13.1981 8.80617 13.1772 8.82498C13.1564 8.84379 13.1222 8.8675 13.1014 8.87766C13.0805 8.88781 13.0485 8.91131 13.0302 8.92989C13.012 8.94846 12.9725 8.97988 12.9425 8.9997C12.9125 9.01952 12.888 9.03968 12.888 9.04449C12.888 9.04931 12.8698 9.06583 12.8477 9.08121C12.8005 9.11394 12.7208 9.18067 12.6697 9.23019C12.6499 9.2494 12.6151 9.2765 12.5925 9.29043C12.5698 9.30435 12.5107 9.35344 12.4612 9.39953C12.4116 9.44561 12.3673 9.48339 12.3628 9.48348C12.3582 9.48358 12.3342 9.50323 12.3094 9.52714C12.2088 9.62427 12.0412 9.77275 12.0202 9.78345C12.0078 9.78972 11.9951 9.803 11.9918 9.81296C11.9885 9.82292 11.9732 9.83974 11.9578 9.85033C11.9424 9.86093 11.9149 9.8884 11.8967 9.9114C11.8696 9.9457 11.8637 9.96106 11.8637 9.99706C11.8637 10.0476 11.877 10.0879 11.8937 10.0879C11.9001 10.0879 11.917 10.0987 11.9313 10.1119L11.9572 10.1359L12.0171 10.1173C12.0501 10.1071 12.1539 10.0734 12.2478 10.0424C12.4485 9.97622 12.5517 9.95072 12.6194 9.95063C12.6465 9.95059 12.6998 9.94378 12.738 9.93548C12.8195 9.91775 13.0756 9.91041 13.0944 9.92526C13.1015 9.93083 13.1265 9.93247 13.1549 9.92922C13.185 9.92578 13.211 9.92778 13.2235 9.93451C13.2346 9.94045 13.2692 9.94829 13.3005 9.95192C13.3985 9.96329 13.4468 9.97458 13.4648 9.99031C13.4744 9.99866 13.4908 10.0055 13.5014 10.0055C13.5119 10.0055 13.5282 10.0137 13.5376 10.0238C13.5471 10.0339 13.5642 10.0421 13.5756 10.0421C13.587 10.0421 13.6041 10.0504 13.6135 10.0604C13.623 10.0705 13.6384 10.0787 13.6478 10.0787C13.6572 10.0787 13.6726 10.0866 13.6819 10.0963C13.6912 10.106 13.7104 10.1167 13.7245 10.1201C13.7385 10.1235 13.7569 10.1363 13.7653 10.1487C13.7736 10.161 13.7902 10.1754 13.8021 10.1806C13.8141 10.1859 13.8312 10.2022 13.8401 10.2169C13.8491 10.2316 13.8685 10.2496 13.8831 10.2569C13.8977 10.2642 13.9149 10.2825 13.9214 10.2977C13.9279 10.3128 13.9469 10.3353 13.9637 10.3476C13.9826 10.3616 13.9987 10.3846 14.0061 10.4086C14.0127 10.4298 14.0283 10.4563 14.0408 10.4675C14.0676 10.4914 14.1015 10.5594 14.1018 10.5897C14.102 10.6141 14.1159 10.6429 14.1402 10.6692C14.1495 10.6793 14.164 10.7102 14.1725 10.7379C14.1892 10.7923 14.2249 11.17 14.2322 11.3682C14.2361 11.4759 14.2343 11.4965 14.2168 11.5428C14.2035 11.5781 14.1941 11.6345 14.1882 11.7147C14.1813 11.8087 14.1749 11.8427 14.1583 11.8743C14.1454 11.8986 14.1341 11.9423 14.1296 11.9854C14.1251 12.0292 14.1132 12.0749 14.0987 12.1044C14.0858 12.1308 14.0703 12.1791 14.0642 12.2119C14.0578 12.2469 14.043 12.2858 14.0284 12.3065C14.012 12.3296 14.0012 12.3602 13.9968 12.3962C13.9924 12.4321 13.9817 12.4625 13.9656 12.485C13.9521 12.5038 13.9367 12.5412 13.9314 12.5683C13.9261 12.5953 13.9093 12.6354 13.8942 12.6575C13.879 12.6796 13.8616 12.718 13.8554 12.7427C13.8493 12.7675 13.8379 12.7928 13.8302 12.799C13.8107 12.8146 13.7926 12.8513 13.7854 12.89C13.782 12.908 13.7688 12.9365 13.7559 12.9533C13.7431 12.9701 13.7277 12.9987 13.7217 13.0167C13.7158 13.0348 13.697 13.064 13.6799 13.0816C13.6623 13.0999 13.6463 13.128 13.6428 13.1471C13.6395 13.1654 13.6256 13.1963 13.6121 13.2155C13.5985 13.2348 13.5814 13.2671 13.574 13.2873C13.5667 13.3075 13.5505 13.3343 13.5382 13.347C13.5258 13.3596 13.5087 13.3864 13.5001 13.4065C13.4916 13.4266 13.4767 13.4513 13.4671 13.4614C13.4575 13.4716 13.4401 13.4984 13.4284 13.5211C13.4166 13.5437 13.3948 13.5758 13.3799 13.5923C13.3649 13.6089 13.3527 13.6258 13.3527 13.63C13.3527 13.6342 13.3394 13.6536 13.3232 13.6731C13.307 13.6927 13.2838 13.7304 13.2716 13.7568C13.2594 13.7832 13.2456 13.8049 13.2409 13.8049C13.2362 13.8049 13.2224 13.8237 13.2101 13.8467C13.1979 13.8697 13.1801 13.8925 13.1707 13.8973C13.1613 13.9022 13.1455 13.9215 13.1356 13.9402C13.1257 13.9589 13.1082 13.9825 13.0966 13.9925C13.0851 14.0026 13.0676 14.026 13.0578 14.0446C13.048 14.0631 13.0321 14.0837 13.0224 14.0904C13.0127 14.097 12.9992 14.1127 12.9925 14.1253C12.9857 14.1379 12.9657 14.1647 12.948 14.1848C12.9304 14.2049 12.8924 14.2482 12.8637 14.2809C12.835 14.3137 12.7964 14.3569 12.7779 14.3771C12.7594 14.3972 12.7106 14.451 12.6695 14.4967C12.6283 14.5423 12.5839 14.5852 12.5707 14.592C12.5576 14.5987 12.5441 14.6128 12.5407 14.6231C12.5373 14.6335 12.5126 14.6633 12.486 14.6893C12.4593 14.7154 12.4012 14.7721 12.3569 14.8155C12.2173 14.9521 12.173 14.9917 12.1361 15.0128C12.1164 15.0242 12.094 15.0452 12.0863 15.0597C12.0785 15.0741 12.053 15.0967 12.0296 15.11C12.0062 15.1232 11.9778 15.1465 11.9667 15.1616C11.9555 15.1768 11.9235 15.2033 11.8956 15.2205C11.8676 15.2378 11.8377 15.2623 11.829 15.2751C11.8204 15.2879 11.7891 15.3101 11.7595 15.3245C11.7299 15.3389 11.6941 15.3655 11.6798 15.3836C11.6634 15.4044 11.6321 15.426 11.5951 15.4422C11.5579 15.4585 11.5269 15.48 11.5103 15.5011C11.4959 15.5193 11.4583 15.5475 11.4268 15.5637C11.3952 15.5799 11.3653 15.6006 11.3603 15.6097C11.3484 15.6311 11.284 15.6664 11.2205 15.6861C11.1888 15.696 11.1573 15.7146 11.1352 15.7364C11.0959 15.7752 11.0575 15.7962 10.9906 15.8154C10.9656 15.8226 10.9203 15.8464 10.8899 15.8683C10.8183 15.9199 10.7972 15.9297 10.6802 15.9655C10.6266 15.9819 10.566 16.007 10.5455 16.0213C10.4911 16.0594 10.4072 16.0899 10.2466 16.1301C10.03 16.1842 9.82662 16.2221 9.75303 16.2221C9.47647 16.222 9.38317 16.217 9.36007 16.2012C9.34392 16.1902 9.31861 16.1852 9.27874 16.1852C9.22926 16.1852 9.21763 16.1819 9.19858 16.1623C9.18148 16.1447 9.16678 16.1394 9.13528 16.1394C9.10602 16.1394 9.08844 16.1338 9.07399 16.1199C9.06283 16.1091 9.03658 16.0966 9.01564 16.092C8.99469 16.0875 8.96507 16.0736 8.94982 16.0612C8.93457 16.0489 8.91418 16.0387 8.90453 16.0387C8.89487 16.0387 8.87866 16.0285 8.86849 16.016C8.85832 16.0036 8.8384 15.9891 8.82421 15.9839C8.81002 15.9787 8.79637 15.9673 8.79389 15.9585C8.79141 15.9497 8.77114 15.9318 8.74885 15.9186C8.72182 15.9027 8.7014 15.8809 8.68754 15.8532C8.6761 15.8304 8.65832 15.8097 8.64801 15.8071C8.6377 15.8045 8.62286 15.7875 8.61504 15.7695C8.60722 15.7514 8.59638 15.7366 8.59098 15.7366C8.58556 15.7366 8.57466 15.7216 8.56673 15.7033C8.55881 15.685 8.54378 15.6589 8.53335 15.6453C8.52291 15.6316 8.51023 15.6027 8.50517 15.581C8.4919 15.5239 8.4302 15.45 8.38611 15.4383C8.34222 15.4267 8.30369 15.4576 8.26214 15.5377C8.21459 15.6293 8.19883 15.6846 8.1845 15.8098C8.17846 15.8627 8.16756 15.9389 8.1603 15.9792C8.12447 16.1778 8.11599 16.2388 8.10294 16.3912C8.09487 16.4853 8.08884 16.6645 8.08887 16.8089C8.08891 17.0212 8.09138 17.0676 8.10426 17.0973C8.11471 17.1214 8.12022 17.1651 8.12154 17.2343C8.12316 17.3188 8.12679 17.3411 8.14315 17.3671C8.15437 17.3849 8.16567 17.4238 8.16948 17.4578C8.17314 17.4905 8.18426 17.5353 8.19419 17.5574C8.20412 17.5794 8.21676 17.6247 8.22228 17.6581C8.22838 17.695 8.23958 17.7261 8.25098 17.7378C8.26218 17.7493 8.27202 17.7762 8.27554 17.8049C8.28 17.8413 8.28676 17.8562 8.30363 17.8668C8.31641 17.8749 8.33028 17.897 8.33627 17.9188C8.342 17.9397 8.3551 17.9655 8.36539 17.9762C8.37568 17.9869 8.39023 18.0154 8.39774 18.0394C8.40523 18.0635 8.42008 18.089 8.43075 18.0963C8.44141 18.1035 8.45681 18.1255 8.46498 18.1452C8.47315 18.1649 8.48362 18.181 8.48824 18.181C8.49286 18.181 8.50568 18.1996 8.51671 18.2222C8.52774 18.2449 8.54046 18.2634 8.54496 18.2634C8.54947 18.2634 8.55936 18.2747 8.56693 18.2886C8.58644 18.3243 8.78052 18.5094 8.83022 18.5397C8.8441 18.5482 8.85836 18.5639 8.86191 18.5747C8.86574 18.5864 8.88577 18.6016 8.91129 18.6121C8.93491 18.6219 8.96211 18.6396 8.97174 18.6514C8.98182 18.6638 9.00374 18.6752 9.02333 18.6782C9.04207 18.6812 9.07224 18.6961 9.09038 18.7115C9.10853 18.7269 9.1341 18.7395 9.14721 18.7395C9.1615 18.7395 9.18435 18.7519 9.20417 18.7705C9.23058 18.7953 9.24785 18.8028 9.28958 18.8079C9.32831 18.8125 9.3503 18.8213 9.37429 18.8416C9.40172 18.8649 9.41759 18.8701 9.47777 18.8756C9.53337 18.8808 9.55402 18.8869 9.57252 18.9036C9.59305 18.9223 9.60841 18.9257 9.68902 18.9297C9.75969 18.9332 9.79389 18.9396 9.83223 18.9564C9.87951 18.9772 9.88936 18.9782 9.99346 18.9726C10.0678 18.9686 10.1184 18.9702 10.147 18.9775C10.2381 19.0007 10.3557 19.0065 10.4505 18.9924C10.5001 18.985 10.611 18.9701 10.6971 18.9593C10.8691 18.9378 11.0303 18.9131 11.1761 18.8861C11.2282 18.8765 11.3136 18.8619 11.3657 18.8538C11.4179 18.8457 11.5033 18.8285 11.5554 18.8157C11.6387 18.7952 11.6734 18.7821 11.7309 18.7495C11.7628 18.7314 11.9183 18.6817 12.0088 18.6607C12.1646 18.6245 12.1695 18.6227 12.2227 18.584C12.2626 18.555 12.3061 18.5371 12.4253 18.5003C12.5292 18.4682 12.5864 18.4455 12.6068 18.4283C12.6495 18.3924 12.6989 18.3703 12.8104 18.3371C12.8793 18.3166 12.9185 18.2993 12.9432 18.2784C12.9934 18.2359 13.0171 18.2231 13.0968 18.1954C13.1397 18.1805 13.1809 18.1587 13.201 18.1402C13.2384 18.1058 13.2855 18.0813 13.367 18.0536C13.3977 18.0432 13.4358 18.0228 13.4518 18.0082C13.4903 17.9731 13.5443 17.942 13.613 17.9154C13.6459 17.9027 13.6864 17.8774 13.7104 17.8545C13.7472 17.8195 13.8188 17.7873 13.86 17.7873C13.8658 17.7873 13.8928 17.7647 13.92 17.7371C13.9485 17.708 13.9939 17.6748 14.0276 17.6584C14.0597 17.6428 14.0995 17.6161 14.1161 17.5991C14.1327 17.5822 14.1672 17.5598 14.1929 17.5494C14.2742 17.5164 14.3009 17.5 14.3305 17.4645C14.3476 17.4439 14.384 17.4183 14.4202 17.4012C14.4604 17.3823 14.4872 17.3627 14.4988 17.3438C14.5101 17.3252 14.54 17.303 14.583 17.2812C14.6212 17.2618 14.6605 17.2336 14.6752 17.2151C14.69 17.1963 14.7273 17.1696 14.7641 17.1516C14.8005 17.1337 14.8389 17.1064 14.8541 17.0875C14.8694 17.0687 14.9077 17.0414 14.9442 17.0235C14.9849 17.0035 15.0132 16.9827 15.0231 16.9655C15.0315 16.9507 15.062 16.9256 15.0907 16.9097C15.1195 16.8938 15.1588 16.8623 15.1781 16.8396C15.1974 16.8169 15.2267 16.7917 15.2432 16.7836C15.2597 16.7755 15.2989 16.7453 15.3302 16.7164C15.3615 16.6876 15.401 16.6571 15.418 16.6487C15.435 16.6402 15.4595 16.617 15.4726 16.597C15.489 16.5718 15.5136 16.5523 15.5531 16.5331C15.592 16.5141 15.6171 16.4943 15.633 16.47C15.6458 16.4505 15.6712 16.4256 15.6896 16.4147C15.708 16.4037 15.736 16.3789 15.7519 16.3595C15.7678 16.3402 15.8018 16.3113 15.8276 16.2954C15.8533 16.2794 15.8826 16.253 15.8926 16.2366C15.9026 16.2202 15.9305 16.1948 15.9545 16.1801C15.9786 16.1654 16.0058 16.1395 16.0151 16.1225C16.0244 16.1056 16.0543 16.0778 16.0815 16.0609C16.1087 16.044 16.1418 16.0136 16.1551 15.9933C16.1683 15.973 16.1961 15.9461 16.2168 15.9335C16.2375 15.9209 16.2619 15.8996 16.271 15.8862C16.2801 15.8727 16.3132 15.8435 16.3445 15.8213C16.3758 15.799 16.4065 15.7693 16.4126 15.7553C16.4187 15.7413 16.4412 15.7162 16.4626 15.6996C16.484 15.683 16.5099 15.6556 16.5203 15.6387C16.5306 15.6219 16.5536 15.5997 16.5714 15.5896C16.5892 15.5795 16.6146 15.5553 16.628 15.5358C16.6413 15.5163 16.6721 15.4866 16.6964 15.4698C16.7207 15.4529 16.7486 15.4239 16.7585 15.4053C16.7683 15.3867 16.7916 15.3602 16.8102 15.3465C16.8288 15.3328 16.8509 15.3089 16.8592 15.2934C16.8675 15.2778 16.8939 15.2458 16.9179 15.2223C16.9419 15.1988 16.9807 15.1584 17.0042 15.1326C17.0276 15.1068 17.075 15.0581 17.1095 15.0243C17.1439 14.9906 17.1752 14.9537 17.1789 14.9423C17.1826 14.9309 17.2029 14.9083 17.224 14.892C17.245 14.8756 17.2704 14.8469 17.2803 14.8281C17.2903 14.8093 17.3093 14.787 17.3225 14.7786C17.3358 14.7702 17.3549 14.7479 17.3648 14.729C17.3748 14.7101 17.3954 14.685 17.4106 14.6732C17.4257 14.6614 17.4454 14.6366 17.4542 14.6181C17.4631 14.5996 17.485 14.5749 17.5028 14.5631C17.5207 14.5514 17.5379 14.5342 17.541 14.5249C17.5441 14.5156 17.5676 14.4857 17.5931 14.4585C17.6187 14.4312 17.6396 14.4048 17.6396 14.3999C17.6396 14.3949 17.655 14.3754 17.6738 14.3565C17.6925 14.3376 17.7183 14.3077 17.731 14.2901C17.7437 14.2725 17.7731 14.2333 17.7964 14.2031C17.8197 14.1729 17.8545 14.1255 17.8737 14.0979C17.893 14.0702 17.9189 14.0372 17.9313 14.0246C17.9437 14.012 17.9605 13.9893 17.9687 13.9742C17.9769 13.9591 17.998 13.9313 18.0155 13.9124C18.0331 13.8935 18.0474 13.8741 18.0474 13.8692C18.0474 13.8644 18.0613 13.8452 18.0783 13.8266C18.1075 13.7946 18.1293 13.766 18.1941 13.675C18.2096 13.6533 18.2319 13.624 18.2437 13.6099C18.2554 13.5958 18.2731 13.567 18.2829 13.5458C18.2927 13.5246 18.3098 13.4996 18.3207 13.4902C18.3317 13.4808 18.3457 13.4581 18.3517 13.4398C18.3577 13.4216 18.3746 13.3943 18.3893 13.3792C18.4039 13.3641 18.423 13.3344 18.4316 13.3133C18.4403 13.2922 18.4578 13.2684 18.4705 13.2603C18.4832 13.2523 18.5004 13.2293 18.5088 13.2093C18.5171 13.1892 18.5338 13.1653 18.546 13.156C18.5581 13.1468 18.5768 13.117 18.5875 13.0899C18.5982 13.0628 18.6146 13.0343 18.624 13.0267C18.6334 13.0192 18.6513 12.9903 18.6637 12.9626C18.6761 12.9349 18.698 12.8974 18.7123 12.8794C18.7266 12.8613 18.745 12.831 18.7531 12.8122C18.7613 12.7933 18.7787 12.7656 18.7918 12.7505C18.8049 12.7355 18.8157 12.7152 18.8157 12.7056C18.8157 12.6959 18.8302 12.6725 18.8479 12.6536C18.8656 12.6347 18.8848 12.6023 18.8905 12.5817C18.8963 12.5611 18.913 12.5282 18.9276 12.5085C18.9423 12.4889 18.9612 12.4559 18.9697 12.4351C18.9782 12.4144 18.9958 12.3824 19.0088 12.3639C19.0218 12.3454 19.0353 12.3179 19.0387 12.3028C19.0421 12.2877 19.0601 12.261 19.0787 12.2436C19.1048 12.2192 19.1142 12.2013 19.1201 12.1655C19.1244 12.1392 19.1402 12.1009 19.1566 12.0769C19.1725 12.0538 19.1856 12.0256 19.1856 12.0143C19.1856 12.0031 19.2005 11.9766 19.2187 11.9555C19.2381 11.9332 19.252 11.907 19.2522 11.8929C19.2524 11.8659 19.2824 11.7963 19.2978 11.7871C19.3032 11.7839 19.3141 11.7596 19.3221 11.7331C19.3305 11.7052 19.3482 11.6742 19.3642 11.6595C19.3858 11.6395 19.3931 11.6228 19.398 11.5822C19.4015 11.5537 19.4143 11.5137 19.4264 11.4935C19.4385 11.4732 19.4512 11.4425 19.4546 11.4252C19.458 11.4079 19.4733 11.375 19.4886 11.3519C19.5052 11.3268 19.5189 11.2908 19.5229 11.2618C19.5273 11.2299 19.5383 11.2027 19.5554 11.182C19.5711 11.1629 19.5856 11.1292 19.5923 11.0964C19.5987 11.0653 19.6128 11.0317 19.6256 11.0173C19.6422 10.9987 19.6491 10.9775 19.6527 10.9341C19.6564 10.8892 19.6643 10.866 19.6871 10.8328C19.7104 10.7989 19.7167 10.7799 19.7167 10.7437C19.7167 10.7085 19.7228 10.6892 19.7425 10.6617C19.7648 10.6307 19.7684 10.6165 19.7686 10.559C19.7688 10.5014 19.772 10.489 19.7914 10.469C19.8096 10.4503 19.8149 10.4329 19.8187 10.379C19.8216 10.3386 19.831 10.2978 19.8425 10.2758C19.8549 10.252 19.8637 10.2107 19.868 10.1559C19.873 10.0922 19.8798 10.0643 19.8965 10.0381C19.9166 10.0067 19.918 9.99713 19.9123 9.9257C19.9066 9.85445 19.9082 9.8434 19.9298 9.79914C19.9509 9.7562 19.9533 9.74033 19.9514 9.66063C19.9496 9.59022 19.9526 9.56444 19.9652 9.54221C19.9841 9.50883 19.9872 9.46157 19.9772 9.35752C19.9712 9.29571 19.9731 9.27153 19.9873 9.22621C20.0042 9.17238 20.0042 9.16767 19.9874 9.0731C19.9762 9.00971 19.9692 8.91748 19.9675 8.80976C19.9647 8.62815 19.9536 8.55437 19.9004 8.36215C19.8324 8.11656 19.8144 8.07485 19.7238 7.95457C19.7067 7.9318 19.6761 7.87206 19.6558 7.82182C19.6238 7.74255 19.6117 7.72378 19.5644 7.6801C19.5321 7.65017 19.4982 7.6069 19.4809 7.57343C19.4586 7.53034 19.4434 7.51315 19.4162 7.50019C19.3937 7.48948 19.3716 7.46814 19.3561 7.44206C19.3415 7.41768 19.3187 7.39498 19.3002 7.38646C19.283 7.37853 19.2525 7.35483 19.2324 7.33381C19.2116 7.31213 19.1871 7.29558 19.1758 7.29558C19.1644 7.29558 19.141 7.27976 19.1217 7.25896C19.1015 7.2373 19.0791 7.22234 19.0667 7.22234C19.0553 7.22234 19.0352 7.21201 19.0221 7.19939C19.009 7.18676 18.9839 7.17167 18.9663 7.16584C18.9486 7.16001 18.9194 7.14356 18.9012 7.12929C18.8831 7.11501 18.8591 7.10332 18.848 7.10332C18.8369 7.10332 18.8121 7.09302 18.7929 7.08044C18.7736 7.06785 18.7464 7.05742 18.7323 7.05726C18.7181 7.0571 18.6983 7.05092 18.6882 7.04352C18.6781 7.03613 18.6586 7.03008 18.6449 7.03008C18.6313 7.03008 18.6118 7.02403 18.6017 7.01664C18.5916 7.00925 18.5726 7.00307 18.5594 7.00291C18.5463 7.00275 18.5197 6.99438 18.5002 6.98431C18.4807 6.97424 18.4504 6.966 18.4327 6.966C18.4151 6.966 18.3957 6.96015 18.3895 6.953C18.3828 6.94516 18.3531 6.9382 18.3148 6.93548C18.2799 6.933 18.1937 6.92424 18.1233 6.916C17.95 6.89574 17.5856 6.89167 17.5218 6.90928Z" fill="#F9F9F9"/>
</svg>
