<svg width="25" height="24" viewBox="0 0 25 24" fill="none" xmlns="http://www.w3.org/2000/svg">
<rect x="0.673828" width="24" height="24" rx="12" fill="#CCD1DA"/>
<path fill-rule="evenodd" clip-rule="evenodd" d="M11.7619 6.00609C11.7498 6.01048 11.7269 6.01212 11.7111 6.00972C11.6952 6.00732 11.6604 6.01084 11.6336 6.01753C11.6068 6.02422 11.5679 6.0297 11.5471 6.0297C11.5263 6.0297 11.4862 6.03731 11.458 6.0466C11.4299 6.0559 11.3906 6.06355 11.3708 6.06359C11.351 6.06364 11.2951 6.07727 11.2467 6.09388C11.1111 6.14042 11.0305 6.16094 11.0236 6.1507C11.0163 6.13969 10.3792 6.40012 10.3792 6.41414C10.3792 6.42534 10.2838 6.47753 10.1194 6.55622C10.0564 6.58636 9.98994 6.6225 9.97163 6.63654C9.95333 6.65058 9.90335 6.6794 9.86057 6.70061C9.81779 6.72181 9.76441 6.75373 9.74196 6.77153C9.71951 6.78932 9.67013 6.81975 9.63222 6.83913C9.59431 6.85852 9.5557 6.88242 9.54642 6.89226C9.53715 6.90209 9.50629 6.92322 9.47785 6.93922C9.44941 6.95522 9.40775 6.98296 9.38527 7.00088C9.36279 7.0188 9.33251 7.03925 9.31798 7.04633C9.30345 7.05341 9.26635 7.0787 9.23553 7.10252C9.20471 7.12635 9.1647 7.15308 9.1466 7.16194C9.12851 7.1708 9.10745 7.1872 9.09982 7.1984C9.09217 7.20959 9.07076 7.22546 9.05223 7.23366C9.0337 7.24186 9.00071 7.26453 8.97892 7.28406C8.95712 7.30357 8.92446 7.3288 8.90632 7.34013C8.88819 7.35145 8.87333 7.36338 8.8733 7.36665C8.87326 7.36991 8.85441 7.3848 8.8314 7.39974C8.8084 7.41468 8.7712 7.44243 8.74875 7.46141C8.72629 7.48039 8.68112 7.51684 8.64836 7.54241C8.6156 7.56797 8.57651 7.60057 8.56148 7.61486C8.54646 7.62913 8.5203 7.6498 8.50335 7.66079C8.48639 7.67176 8.46262 7.69113 8.45051 7.70379C8.4384 7.71647 8.38291 7.76588 8.32721 7.81361C8.15651 7.95987 7.81365 8.28435 7.6667 8.43872C7.62068 8.48706 7.56322 8.54668 7.539 8.5712C7.48854 8.62229 7.49204 8.61841 7.30767 8.82846C7.23146 8.91529 7.1592 9.00007 7.14709 9.01687C7.13498 9.03367 7.10328 9.07332 7.07664 9.10497C7.05 9.13663 7.01235 9.18254 6.99297 9.20698C6.9736 9.23144 6.95087 9.25957 6.94246 9.26948C6.93405 9.2794 6.91114 9.31033 6.89153 9.33822C6.81595 9.44576 6.79506 9.47431 6.7733 9.49994C6.76092 9.51453 6.75078 9.53016 6.75078 9.5347C6.75078 9.53923 6.73989 9.55648 6.72656 9.57303C6.71325 9.58957 6.68848 9.62499 6.67152 9.65174C6.6428 9.69704 6.62046 9.73088 6.54974 9.83615C6.53438 9.85903 6.52181 9.88126 6.52181 9.88556C6.52181 9.88985 6.51288 9.90506 6.50199 9.91934C6.48177 9.94585 6.45365 9.99477 6.41094 10.0777C6.39778 10.1032 6.37996 10.1339 6.37135 10.1458C6.36274 10.1576 6.34881 10.1843 6.34041 10.2049C6.33201 10.2256 6.31739 10.2532 6.30793 10.2663C6.29846 10.2794 6.28524 10.3076 6.27854 10.329C6.27185 10.3503 6.2569 10.3833 6.24533 10.4023C6.23376 10.4213 6.21799 10.4577 6.21029 10.4833C6.20258 10.5089 6.18449 10.5526 6.17008 10.5805C6.15567 10.6084 6.13738 10.6597 6.12943 10.6946C6.11407 10.762 6.08683 10.8298 6.07152 10.8389C6.05153 10.8508 5.98612 11.2597 6.00265 11.2695C6.00916 11.2734 6.01471 11.3115 6.01755 11.3718C6.02004 11.4246 6.02503 11.4716 6.02864 11.4763C6.03225 11.4809 6.03806 11.5036 6.04154 11.5267C6.04503 11.5498 6.05346 11.5763 6.06026 11.5856C6.06708 11.5949 6.07266 11.6112 6.07266 11.6216C6.07266 11.6321 6.08056 11.6531 6.09023 11.6683C6.0999 11.6836 6.10783 11.7006 6.10785 11.7062C6.10797 11.7442 6.28284 11.9226 6.34942 11.9526C6.37158 11.9626 6.3897 11.974 6.3897 11.9781C6.3897 11.9821 6.40555 11.9878 6.42493 11.9908C6.44431 11.9938 6.46016 11.9998 6.46016 12.0042C6.46016 12.0086 6.47502 12.0144 6.49318 12.0172C6.51135 12.02 6.53309 12.0259 6.5415 12.0303C6.54991 12.0347 6.56984 12.0383 6.58578 12.0383C6.60172 12.0383 6.62303 12.0438 6.63313 12.0506C6.64439 12.0582 6.67159 12.0628 6.70335 12.0626C6.73186 12.0624 6.80473 12.0641 6.86527 12.0663C6.9382 12.069 6.99468 12.0666 7.0326 12.0591C7.06409 12.053 7.1314 12.0455 7.18219 12.0426C7.25225 12.0385 7.29794 12.0301 7.37153 12.0076C7.94186 11.8337 7.95948 11.8277 8.09874 11.7596C8.17409 11.7227 8.27517 11.6779 8.32334 11.6598C8.37194 11.6417 8.43247 11.6114 8.45934 11.5919C8.48596 11.5725 8.54592 11.5412 8.59258 11.5223C8.63924 11.5034 8.68679 11.4781 8.69826 11.4661C8.70973 11.4542 8.75499 11.4282 8.79883 11.4086C8.84268 11.3889 8.89215 11.3608 8.90878 11.3463C8.92541 11.3317 8.97078 11.3041 9.0096 11.285C9.04843 11.2659 9.09407 11.2376 9.11102 11.2222C9.12797 11.2068 9.1676 11.1821 9.19909 11.1674C9.23057 11.1526 9.26595 11.1291 9.27771 11.115C9.28946 11.101 9.31918 11.0809 9.34376 11.0704C9.36833 11.0598 9.40231 11.0372 9.41926 11.02C9.43621 11.0029 9.47279 10.9778 9.50055 10.9642C9.5283 10.9507 9.55747 10.9301 9.56538 10.9185C9.57329 10.907 9.60269 10.8841 9.6307 10.8678C9.65872 10.8514 9.68379 10.8327 9.68641 10.8262C9.68903 10.8196 9.71899 10.7987 9.75299 10.7796C9.78698 10.7606 9.81993 10.7382 9.82619 10.73C9.83246 10.7217 9.85344 10.7039 9.87281 10.6903C9.89219 10.6767 9.92624 10.6497 9.94849 10.6303C9.97074 10.6109 10.0005 10.5893 10.0145 10.5823C10.0286 10.5752 10.051 10.5578 10.0643 10.5435C10.0776 10.5291 10.1042 10.5079 10.1234 10.4963C10.1426 10.4846 10.1625 10.4675 10.1677 10.4582C10.1729 10.4488 10.1982 10.4263 10.224 10.408C10.2657 10.3784 10.2724 10.3693 10.2859 10.3231C10.3002 10.2743 10.2976 10.2389 10.2771 10.2037C10.2755 10.2009 10.2504 10.2018 10.2213 10.2056C10.1611 10.2135 9.98968 10.2897 9.93872 10.3311C9.92169 10.345 9.86387 10.3748 9.81023 10.3973C9.7566 10.4199 9.69416 10.4506 9.67149 10.4656C9.59634 10.5152 9.51699 10.5464 9.19469 10.6528C8.91047 10.7466 8.80748 10.7734 8.75634 10.7669C8.72952 10.7635 8.6881 10.7654 8.65567 10.7716C8.61076 10.7802 8.59656 10.7801 8.57887 10.771C8.56582 10.7643 8.54312 10.7617 8.5219 10.7644C8.49911 10.7673 8.48103 10.7648 8.47078 10.7574C8.46205 10.751 8.44462 10.7457 8.43206 10.7456C8.41949 10.7454 8.40202 10.7377 8.39326 10.7284C8.3845 10.7191 8.36855 10.7115 8.35782 10.7115C8.33482 10.7115 8.24795 10.6477 8.24795 10.6308C8.24795 10.6244 8.24035 10.6152 8.23105 10.6104C8.22176 10.6057 8.21142 10.5894 8.20808 10.5742C8.20474 10.5591 8.1949 10.5391 8.18621 10.5298C8.15458 10.496 8.14894 10.2894 8.17704 10.1933C8.18734 10.1581 8.20146 10.0982 8.20841 10.0602C8.21538 10.0222 8.2306 9.97546 8.24225 9.95625C8.25389 9.93705 8.26631 9.90802 8.26983 9.89175C8.27335 9.87548 8.28726 9.84316 8.30074 9.81992C8.31421 9.79668 8.32816 9.76816 8.33173 9.75654C8.3353 9.74492 8.35853 9.70019 8.38335 9.65716C8.40818 9.61412 8.4384 9.56016 8.45051 9.53725C8.46262 9.51433 8.48099 9.4868 8.49133 9.47606C8.50167 9.46532 8.51303 9.44702 8.51656 9.4354C8.52009 9.42378 8.53027 9.40662 8.53917 9.39726C8.54807 9.3879 8.56142 9.36629 8.56884 9.34925C8.57627 9.33219 8.5862 9.31596 8.59092 9.31316C8.59564 9.31036 8.6222 9.27492 8.64994 9.23441C8.67768 9.19389 8.71881 9.13789 8.74133 9.10994C8.76386 9.082 8.78749 9.04968 8.79383 9.03811C8.80017 9.02655 8.81568 9.00492 8.82829 8.99007C8.8409 8.9752 8.86311 8.94754 8.87764 8.9286C8.95203 8.8316 9.16408 8.59043 9.27262 8.47941C9.30725 8.44397 9.36532 8.38351 9.40165 8.34504C9.50051 8.24036 9.77927 7.97357 9.89923 7.86883C9.95736 7.81807 10.0188 7.76405 10.0357 7.74878C10.0925 7.6976 10.2712 7.54712 10.3309 7.50015C10.3634 7.47459 10.4084 7.43797 10.4309 7.41877C10.4533 7.39958 10.4838 7.37676 10.4987 7.36807C10.5135 7.35938 10.5433 7.33803 10.5647 7.32065C10.6113 7.28293 10.6705 7.23843 10.7166 7.20649C10.735 7.19371 10.7667 7.1709 10.787 7.1558C10.8073 7.14071 10.8457 7.11434 10.8723 7.09719C10.8989 7.08005 10.9417 7.04962 10.9673 7.02957C10.993 7.00953 11.029 6.98578 11.0473 6.97682C11.0656 6.96785 11.0979 6.94659 11.1192 6.92957C11.1404 6.91256 11.1843 6.88584 11.2167 6.87018C11.2491 6.85452 11.2948 6.82567 11.3184 6.80607C11.3419 6.78647 11.3929 6.75606 11.4316 6.7385C11.4704 6.72094 11.5239 6.69063 11.5505 6.67114C11.5772 6.65164 11.6624 6.60597 11.7399 6.56964C11.8174 6.53331 11.9049 6.48905 11.9343 6.47127C11.9933 6.43565 12.308 6.30889 12.3916 6.28711C12.4348 6.27583 12.4486 6.26763 12.4673 6.24194L12.4902 6.21054L12.4673 6.18459C12.4547 6.17031 12.4355 6.15598 12.4246 6.15274C12.4137 6.14952 12.4007 6.13952 12.3957 6.13054C12.3906 6.12156 12.3793 6.11421 12.3703 6.11421C12.3614 6.11421 12.3492 6.1085 12.3431 6.10153C12.3371 6.09456 12.3251 6.08886 12.3164 6.08886C12.3077 6.08886 12.2873 6.08251 12.2712 6.07475C12.2162 6.04831 12.2113 6.0466 12.1897 6.0466C12.1778 6.0466 12.1656 6.0428 12.1626 6.03815C12.1596 6.0335 12.1483 6.0297 12.1374 6.0297C12.1266 6.0297 12.1133 6.02551 12.108 6.02038C12.1026 6.01526 12.0612 6.00998 12.0159 6.00866C11.9707 6.00734 11.9336 6.00528 11.9336 6.00408C11.9336 5.99754 11.7805 5.99934 11.7619 6.00609ZM16.6988 6.83934C16.6658 6.8484 16.648 6.84909 16.624 6.84218C16.5987 6.83492 16.5794 6.83638 16.5264 6.84959C16.4901 6.85864 16.4306 6.86613 16.3943 6.86624C16.3471 6.86639 16.3018 6.87383 16.2358 6.89229C16.1849 6.9065 16.1177 6.91959 16.0865 6.92137C16.0083 6.92583 15.9695 6.93551 15.747 7.00599C15.6404 7.03973 15.5226 7.07554 15.4851 7.08555C15.4027 7.10758 15.1689 7.19018 15.1261 7.21238C15.1091 7.22117 15.0735 7.23658 15.0468 7.24661C15.0202 7.25665 14.9231 7.29525 14.8311 7.33239C14.739 7.36954 14.634 7.41191 14.5977 7.42655C14.5614 7.44118 14.5039 7.47096 14.47 7.49272C14.4361 7.51449 14.3588 7.55389 14.2983 7.58029C14.2377 7.60669 14.1684 7.6429 14.1441 7.66077C14.1199 7.67863 14.0525 7.71464 13.9944 7.7408C13.9363 7.76696 13.8749 7.8012 13.8579 7.8169C13.841 7.83259 13.7934 7.86133 13.7522 7.88075C13.7111 7.90017 13.6635 7.92875 13.6465 7.94425C13.6296 7.95975 13.5831 7.98782 13.5433 8.00664C13.5035 8.02546 13.4646 8.05009 13.4569 8.06139C13.4492 8.07269 13.4104 8.09793 13.3708 8.11746C13.3311 8.13699 13.2828 8.1671 13.2635 8.18439C13.2441 8.20166 13.2084 8.22649 13.1842 8.23955C13.16 8.25262 13.1236 8.27773 13.1034 8.29536C13.0833 8.31299 13.0453 8.33901 13.0192 8.35318C12.993 8.36735 12.962 8.38883 12.9502 8.40091C12.9384 8.41299 12.9026 8.43759 12.8706 8.45558C12.8386 8.47356 12.8059 8.49774 12.798 8.50932C12.7901 8.5209 12.7648 8.54066 12.7417 8.55323C12.7187 8.56581 12.684 8.59031 12.6646 8.60767C12.6452 8.62504 12.6135 8.64692 12.5941 8.6563C12.5748 8.66567 12.545 8.68737 12.5281 8.70451C12.5111 8.72166 12.4745 8.75065 12.4466 8.76895C12.4188 8.78725 12.396 8.80586 12.396 8.8103C12.396 8.81475 12.3791 8.83 12.3585 8.8442C12.3147 8.87441 12.2407 8.93601 12.1933 8.98172C12.1749 8.99945 12.1426 9.02446 12.1216 9.03732C12.1006 9.05017 12.0457 9.09548 11.9997 9.13803C11.9537 9.18056 11.9125 9.21544 11.9083 9.21552C11.9041 9.21561 11.8818 9.23375 11.8587 9.25582C11.7653 9.34548 11.6097 9.48254 11.5902 9.49241C11.5787 9.4982 11.5669 9.51046 11.5638 9.51966C11.5608 9.52885 11.5466 9.54438 11.5323 9.55416C11.518 9.56393 11.4924 9.58929 11.4755 9.61052C11.4503 9.64219 11.4448 9.65636 11.4448 9.6896C11.4448 9.73627 11.4572 9.77344 11.4728 9.77344C11.4787 9.77344 11.4943 9.78341 11.5076 9.7956L11.5317 9.81775L11.5873 9.80059C11.618 9.79115 11.7143 9.76004 11.8015 9.73145C11.9879 9.67035 12.0837 9.64682 12.1466 9.64673C12.1717 9.6467 12.2213 9.64041 12.2567 9.63275C12.3324 9.61639 12.5702 9.60961 12.5877 9.62332C12.5942 9.62846 12.6175 9.62998 12.6438 9.62698C12.6718 9.6238 12.6959 9.62564 12.7075 9.63185C12.7178 9.63734 12.75 9.64457 12.7791 9.64793C12.8701 9.65842 12.9149 9.66884 12.9316 9.68336C12.9405 9.69107 12.9558 9.69738 12.9656 9.69738C12.9753 9.69738 12.9905 9.70499 12.9992 9.71428C13.008 9.72358 13.0239 9.73118 13.0345 9.73118C13.0451 9.73118 13.0609 9.73879 13.0697 9.74809C13.0785 9.75738 13.0928 9.76499 13.1015 9.76499C13.1103 9.76499 13.1245 9.77228 13.1332 9.7812C13.1419 9.79012 13.1597 9.79999 13.1727 9.80313C13.1858 9.80628 13.2028 9.81817 13.2106 9.82956C13.2184 9.84094 13.2338 9.85422 13.2449 9.85905C13.2559 9.86389 13.2718 9.87894 13.2801 9.89251C13.2885 9.90608 13.3064 9.9227 13.32 9.92942C13.3335 9.93615 13.3496 9.9531 13.3556 9.96709C13.3616 9.98108 13.3793 10.0018 13.3948 10.0132C13.4124 10.0261 13.4273 10.0473 13.4342 10.0694C13.4403 10.089 13.4549 10.1135 13.4665 10.1238C13.4913 10.1459 13.5228 10.2087 13.5231 10.2367C13.5233 10.2592 13.5362 10.2858 13.5588 10.3101C13.5674 10.3194 13.5809 10.3479 13.5887 10.3735C13.6042 10.4237 13.6374 10.7723 13.6442 10.9552C13.6478 11.0547 13.6462 11.0737 13.6299 11.1164C13.6175 11.149 13.6088 11.201 13.6034 11.2751C13.5969 11.3619 13.591 11.3933 13.5755 11.4224C13.5636 11.4449 13.5531 11.4852 13.5489 11.525C13.5447 11.5654 13.5337 11.6076 13.5202 11.6349C13.5082 11.6592 13.4938 11.7038 13.4882 11.734C13.4822 11.7664 13.4685 11.8023 13.4549 11.8214C13.4397 11.8427 13.4297 11.871 13.4256 11.9042C13.4215 11.9373 13.4116 11.9654 13.3966 11.9861C13.3841 12.0035 13.3698 12.0381 13.3649 12.063C13.3599 12.0879 13.3444 12.125 13.3303 12.1454C13.3162 12.1658 13.3 12.2012 13.2943 12.224C13.2886 12.2469 13.2781 12.2703 13.2709 12.276C13.2528 12.2904 13.236 12.3243 13.2293 12.36C13.2262 12.3766 13.2139 12.4029 13.2019 12.4184C13.19 12.4339 13.1757 12.4603 13.1702 12.477C13.1646 12.4936 13.1472 12.5206 13.1314 12.5369C13.1149 12.5537 13.1002 12.5797 13.0969 12.5973C13.0938 12.6143 13.081 12.6427 13.0684 12.6605C13.0558 12.6783 13.0399 12.7081 13.033 12.7267C13.0262 12.7453 13.0112 12.7701 12.9997 12.7818C12.9883 12.7935 12.9724 12.8182 12.9644 12.8368C12.9565 12.8553 12.9427 12.8781 12.9338 12.8875C12.9249 12.8968 12.9087 12.9216 12.8978 12.9425C12.8869 12.9634 12.8666 12.993 12.8527 13.0083C12.8389 13.0236 12.8275 13.0392 12.8275 13.0431C12.8275 13.0469 12.8152 13.0648 12.8001 13.0829C12.7851 13.101 12.7635 13.1357 12.7522 13.1601C12.7409 13.1845 12.728 13.2045 12.7237 13.2045C12.7193 13.2045 12.7065 13.2219 12.6951 13.2431C12.6837 13.2643 12.6673 13.2854 12.6585 13.2899C12.6498 13.2943 12.6351 13.3121 12.6259 13.3294C12.6167 13.3467 12.6004 13.3684 12.5897 13.3777C12.579 13.387 12.5628 13.4087 12.5537 13.4258C12.5446 13.4429 12.5298 13.4619 12.5208 13.468C12.5118 13.4741 12.4993 13.4887 12.493 13.5003C12.4867 13.5119 12.4681 13.5366 12.4517 13.5552C12.4353 13.5738 12.4001 13.6137 12.3735 13.6439C12.3468 13.6742 12.311 13.7141 12.2938 13.7327C12.2766 13.7513 12.2313 13.8009 12.1931 13.8431C12.1548 13.8852 12.1136 13.9248 12.1014 13.931C12.0892 13.9373 12.0766 13.9503 12.0735 13.9598C12.0703 13.9694 12.0475 13.9969 12.0227 14.0209C11.9979 14.0449 11.944 14.0974 11.9028 14.1374C11.7732 14.2634 11.732 14.3 11.6978 14.3195C11.6795 14.33 11.6587 14.3494 11.6515 14.3628C11.6444 14.3761 11.6207 14.397 11.5989 14.4092C11.5772 14.4215 11.5509 14.4429 11.5405 14.4569C11.5301 14.4709 11.5004 14.4953 11.4745 14.5113C11.4485 14.5272 11.4207 14.5498 11.4127 14.5616C11.4046 14.5734 11.3756 14.594 11.3481 14.6073C11.3207 14.6206 11.2873 14.6451 11.2741 14.6618C11.2588 14.681 11.2298 14.7009 11.1955 14.7159C11.1609 14.7309 11.1321 14.7508 11.1167 14.7702C11.1033 14.787 11.0684 14.8131 11.0391 14.828C11.0099 14.843 10.9821 14.8621 10.9774 14.8705C10.9664 14.8903 10.9066 14.9228 10.8477 14.941C10.8182 14.9502 10.7889 14.9673 10.7684 14.9875C10.7319 15.0233 10.6963 15.0427 10.6342 15.0604C10.611 15.067 10.5689 15.089 10.5406 15.1092C10.4741 15.1569 10.4545 15.1659 10.3459 15.1989C10.2962 15.214 10.2399 15.2372 10.2209 15.2505C10.1704 15.2856 10.0924 15.3138 9.94327 15.3508C9.74212 15.4008 9.55329 15.4358 9.48496 15.4358C9.22815 15.4357 9.14152 15.4311 9.12006 15.4165C9.10507 15.4063 9.08157 15.4017 9.04455 15.4017C8.9986 15.4017 8.98779 15.3987 8.97011 15.3806C8.95423 15.3644 8.94058 15.3595 8.91133 15.3595C8.88416 15.3595 8.86784 15.3543 8.85441 15.3414C8.84406 15.3315 8.81968 15.3199 8.80024 15.3157C8.78078 15.3115 8.75328 15.2987 8.73912 15.2873C8.72495 15.2759 8.70603 15.2665 8.69706 15.2665C8.6881 15.2665 8.67304 15.2571 8.6636 15.2456C8.65416 15.234 8.63565 15.2207 8.62248 15.2159C8.6093 15.2111 8.59663 15.2005 8.59432 15.1925C8.59202 15.1844 8.5732 15.1678 8.55251 15.1557C8.52741 15.1409 8.50845 15.1208 8.49557 15.0953C8.48495 15.0743 8.46844 15.0551 8.45886 15.0527C8.44929 15.0503 8.43552 15.0347 8.42825 15.018C8.42099 15.0013 8.41093 14.9876 8.40591 14.9876C8.40088 14.9876 8.39075 14.9738 8.38339 14.9569C8.37604 14.94 8.36209 14.9159 8.3524 14.9033C8.3427 14.8907 8.33093 14.864 8.32623 14.844C8.3139 14.7913 8.25661 14.7231 8.21567 14.7123C8.17492 14.7016 8.13914 14.7301 8.10056 14.804C8.05641 14.8886 8.04177 14.9396 8.02846 15.0552C8.02285 15.104 8.01274 15.1744 8.00599 15.2116C7.97273 15.3949 7.96484 15.4512 7.95273 15.5919C7.94524 15.6787 7.93964 15.8442 7.93966 15.9775C7.9397 16.1734 7.942 16.2162 7.95396 16.2437C7.96366 16.266 7.96878 16.3063 7.97 16.3701C7.9715 16.4481 7.97487 16.4687 7.99007 16.4927C8.00049 16.5091 8.01098 16.545 8.01451 16.5764C8.01791 16.6066 8.02824 16.648 8.03746 16.6683C8.04669 16.6887 8.05842 16.7305 8.06354 16.7613C8.06921 16.7954 8.07961 16.8241 8.0902 16.8349C8.10059 16.8455 8.10973 16.8704 8.113 16.8968C8.11714 16.9304 8.12342 16.9442 8.13909 16.954C8.15095 16.9615 8.16383 16.9819 8.16939 17.002C8.17471 17.0212 8.18688 17.0451 8.19644 17.055C8.20599 17.0649 8.2195 17.0911 8.22647 17.1133C8.23343 17.1355 8.24722 17.1591 8.25713 17.1658C8.26702 17.1724 8.28133 17.1928 8.28891 17.2109C8.2965 17.2291 8.30622 17.244 8.3105 17.244C8.3148 17.244 8.3267 17.2611 8.33694 17.282C8.34718 17.303 8.35899 17.3201 8.36318 17.3201C8.36737 17.3201 8.37655 17.3305 8.38357 17.3433C8.4017 17.3763 8.58191 17.5472 8.62806 17.5751C8.64095 17.5829 8.65419 17.5975 8.65749 17.6075C8.66104 17.6182 8.67964 17.6322 8.70334 17.642C8.72527 17.651 8.75053 17.6673 8.75948 17.6782C8.76883 17.6896 8.78919 17.7001 8.80738 17.703C8.82478 17.7057 8.85279 17.7195 8.86964 17.7337C8.88649 17.7479 8.91023 17.7595 8.92241 17.7595C8.93568 17.7595 8.9569 17.771 8.9753 17.7882C8.99982 17.811 9.01586 17.818 9.05461 17.8226C9.09057 17.8269 9.11099 17.835 9.13327 17.8538C9.15874 17.8753 9.17348 17.8801 9.22936 17.8852C9.28098 17.8899 9.30017 17.8956 9.31734 17.911C9.33641 17.9282 9.35066 17.9314 9.42552 17.9351C9.49114 17.9383 9.5229 17.9442 9.5585 17.9598C9.6024 17.979 9.61155 17.9799 9.70821 17.9747C9.77723 17.971 9.82423 17.9725 9.8508 17.9792C9.9354 18.0007 10.0446 18.006 10.1326 17.993C10.1786 17.9862 10.2817 17.9724 10.3616 17.9625C10.5213 17.9426 10.671 17.9198 10.8063 17.8949C10.8548 17.886 10.934 17.8725 10.9825 17.865C11.0309 17.8575 11.1102 17.8417 11.1586 17.8299C11.2359 17.811 11.2682 17.7989 11.3215 17.7688C11.3512 17.7521 11.4955 17.7062 11.5796 17.6868C11.7243 17.6534 11.7289 17.6517 11.7782 17.616C11.8153 17.5893 11.8557 17.5727 11.9663 17.5387C12.0628 17.5091 12.116 17.4881 12.1349 17.4723C12.1745 17.4391 12.2204 17.4187 12.3239 17.3881C12.388 17.3692 12.4244 17.3532 12.4472 17.3339C12.4939 17.2946 12.5159 17.2828 12.5899 17.2573C12.6297 17.2436 12.668 17.2234 12.6866 17.2064C12.7213 17.1746 12.7651 17.1519 12.8408 17.1264C12.8693 17.1168 12.9047 17.0979 12.9195 17.0845C12.9553 17.0521 13.0054 17.0234 13.0692 16.9989C13.0998 16.9871 13.1373 16.9638 13.1597 16.9426C13.1938 16.9103 13.2604 16.8806 13.2986 16.8806C13.304 16.8806 13.3291 16.8598 13.3543 16.8342C13.3808 16.8074 13.423 16.7768 13.4542 16.7616C13.484 16.7472 13.521 16.7226 13.5364 16.7069C13.5518 16.6912 13.5839 16.6706 13.6077 16.661C13.6832 16.6306 13.708 16.6154 13.7354 16.5826C13.7513 16.5636 13.7851 16.5399 13.8188 16.5242C13.8561 16.5068 13.881 16.4886 13.8917 16.4712C13.9022 16.4541 13.93 16.4336 13.9699 16.4134C14.0054 16.3955 14.0419 16.3695 14.0555 16.3524C14.0693 16.335 14.104 16.3104 14.1381 16.2938C14.1719 16.2773 14.2075 16.252 14.2217 16.2346C14.2359 16.2172 14.2715 16.192 14.3053 16.1755C14.3431 16.1571 14.3694 16.1378 14.3786 16.122C14.3864 16.1084 14.4147 16.0852 14.4414 16.0705C14.4681 16.0559 14.5046 16.0267 14.5225 16.0058C14.5404 15.9848 14.5676 15.9615 14.583 15.9541C14.5983 15.9466 14.6347 15.9187 14.6638 15.8921C14.6929 15.8655 14.7295 15.8374 14.7453 15.8295C14.761 15.8217 14.7838 15.8003 14.7959 15.7819C14.8112 15.7586 14.834 15.7406 14.8707 15.7229C14.9069 15.7053 14.9302 15.687 14.945 15.6646C14.9568 15.6466 14.9804 15.6237 14.9975 15.6135C15.0146 15.6034 15.0406 15.5805 15.0553 15.5627C15.0701 15.5448 15.1017 15.5182 15.1256 15.5034C15.1495 15.4887 15.1767 15.4643 15.186 15.4492C15.1953 15.434 15.2212 15.4106 15.2435 15.397C15.2658 15.3835 15.2911 15.3596 15.2998 15.3439C15.3084 15.3282 15.3361 15.3026 15.3614 15.287C15.3866 15.2714 15.4174 15.2433 15.4297 15.2246C15.442 15.2059 15.4678 15.1811 15.487 15.1694C15.5062 15.1578 15.5289 15.1381 15.5374 15.1257C15.5459 15.1133 15.5766 15.0863 15.6056 15.0658C15.6347 15.0452 15.6631 15.0178 15.6688 15.0049C15.6745 14.992 15.6954 14.9688 15.7153 14.9535C15.7351 14.9382 15.7592 14.9129 15.7688 14.8973C15.7784 14.8817 15.7998 14.8613 15.8163 14.8519C15.8328 14.8426 15.8565 14.8202 15.8689 14.8023C15.8813 14.7843 15.9098 14.7569 15.9324 14.7413C15.9549 14.7258 15.9809 14.699 15.99 14.6818C15.9991 14.6646 16.0208 14.6402 16.0381 14.6276C16.0553 14.6149 16.0758 14.5928 16.0835 14.5785C16.0912 14.5641 16.1158 14.5346 16.138 14.5129C16.1603 14.4912 16.1964 14.4539 16.2181 14.4301C16.2399 14.4063 16.284 14.3613 16.3159 14.3302C16.3479 14.299 16.377 14.2649 16.3804 14.2544C16.3839 14.2439 16.4027 14.223 16.4223 14.208C16.4418 14.1929 16.4654 14.1664 16.4746 14.149C16.4838 14.1316 16.5015 14.1111 16.5138 14.1033C16.5261 14.0956 16.5438 14.075 16.5531 14.0575C16.5623 14.0401 16.5815 14.0169 16.5955 14.006C16.6096 13.9951 16.6278 13.9722 16.6361 13.9551C16.6443 13.9381 16.6646 13.9152 16.6812 13.9044C16.6978 13.8936 16.7137 13.8778 16.7166 13.8692C16.7195 13.8606 16.7413 13.833 16.765 13.8078C16.7888 13.7827 16.8082 13.7583 16.8082 13.7537C16.8082 13.7491 16.8225 13.7311 16.8399 13.7137C16.8574 13.6962 16.8813 13.6687 16.8931 13.6524C16.9049 13.6361 16.9322 13.6 16.9538 13.5721C16.9754 13.5442 17.0077 13.5005 17.0256 13.4749C17.0435 13.4494 17.0676 13.419 17.0791 13.4073C17.0906 13.3957 17.1062 13.3748 17.1138 13.3608C17.1214 13.3469 17.141 13.3212 17.1573 13.3038C17.1736 13.2863 17.1869 13.2684 17.1869 13.2639C17.1869 13.2595 17.1998 13.2417 17.2155 13.2246C17.2427 13.195 17.2629 13.1686 17.3231 13.0846C17.3375 13.0646 17.3582 13.0375 17.3691 13.0245C17.38 13.0116 17.3964 12.9849 17.4056 12.9654C17.4147 12.9458 17.4305 12.9227 17.4407 12.914C17.4509 12.9053 17.4638 12.8844 17.4694 12.8676C17.475 12.8507 17.4907 12.8255 17.5043 12.8115C17.5179 12.7976 17.5356 12.7702 17.5437 12.7508C17.5517 12.7313 17.5679 12.7093 17.5798 12.7018C17.5916 12.6944 17.6076 12.6732 17.6153 12.6547C17.623 12.6362 17.6385 12.6141 17.6498 12.6056C17.6611 12.597 17.6785 12.5696 17.6884 12.5445C17.6983 12.5195 17.7136 12.4932 17.7223 12.4862C17.731 12.4792 17.7476 12.4526 17.7592 12.427C17.7707 12.4014 17.791 12.3669 17.8043 12.3502C17.8175 12.3335 17.8346 12.3056 17.8422 12.2881C17.8498 12.2707 17.8659 12.2451 17.8781 12.2312C17.8903 12.2174 17.9003 12.1987 17.9003 12.1898C17.9003 12.1808 17.9137 12.1592 17.9302 12.1418C17.9466 12.1243 17.9644 12.0945 17.9698 12.0754C17.9751 12.0564 17.9906 12.026 18.0042 12.0079C18.0178 11.9897 18.0354 11.9592 18.0433 11.9401C18.0512 11.921 18.0675 11.8914 18.0796 11.8744C18.0917 11.8573 18.1042 11.8319 18.1074 11.818C18.1105 11.804 18.1273 11.7794 18.1445 11.7633C18.1687 11.7408 18.1775 11.7243 18.1829 11.6913C18.187 11.6669 18.2016 11.6316 18.2169 11.6095C18.2316 11.5881 18.2437 11.5621 18.2437 11.5517C18.2437 11.5413 18.2576 11.5169 18.2746 11.4974C18.2925 11.4768 18.3055 11.4526 18.3056 11.4396C18.3058 11.4147 18.3337 11.3504 18.3479 11.342C18.3529 11.339 18.3631 11.3165 18.3705 11.2921C18.3783 11.2664 18.3948 11.2377 18.4096 11.2241C18.4297 11.2057 18.4364 11.1903 18.441 11.1528C18.4443 11.1265 18.4561 11.0896 18.4673 11.0709C18.4786 11.0522 18.4904 11.0238 18.4935 11.0079C18.4967 10.9919 18.5109 10.9615 18.5251 10.9403C18.5406 10.917 18.5533 10.8838 18.557 10.857C18.561 10.8276 18.5713 10.8025 18.5872 10.7834C18.6017 10.7658 18.6152 10.7347 18.6214 10.7044C18.6273 10.6756 18.6404 10.6447 18.6523 10.6314C18.6677 10.6142 18.6741 10.5946 18.6775 10.5546C18.681 10.5131 18.6883 10.4917 18.7094 10.461C18.731 10.4298 18.7369 10.4122 18.7369 10.3788C18.7369 10.3463 18.7426 10.3285 18.7609 10.3031C18.7816 10.2745 18.7849 10.2614 18.7851 10.2083C18.7853 10.1552 18.7882 10.1437 18.8063 10.1252C18.8232 10.108 18.8281 10.0919 18.8317 10.0422C18.8344 10.0048 18.8431 9.96723 18.8537 9.94693C18.8653 9.92495 18.8735 9.88677 18.8774 9.83625C18.8821 9.77744 18.8884 9.75163 18.9039 9.72746C18.9226 9.69847 18.9238 9.68966 18.9186 9.62372C18.9133 9.55796 18.9147 9.54775 18.9349 9.5069C18.9544 9.46726 18.9567 9.45261 18.9548 9.37904C18.9532 9.31405 18.956 9.29025 18.9677 9.26973C18.9852 9.23892 18.9881 9.1953 18.9788 9.09925C18.9733 9.04219 18.975 9.01987 18.9882 8.97804C19.0039 8.92835 19.0039 8.924 18.9883 8.83671C18.9779 8.7782 18.9714 8.69306 18.9698 8.59363C18.9672 8.42598 18.9569 8.35788 18.9075 8.18045C18.8444 7.95374 18.8276 7.91524 18.7435 7.80422C18.7276 7.7832 18.6992 7.72806 18.6804 7.68168C18.6507 7.60851 18.6394 7.59119 18.5956 7.55086C18.5655 7.52323 18.534 7.48329 18.518 7.4524C18.4973 7.41262 18.4832 7.39676 18.4579 7.38479C18.437 7.3749 18.4165 7.3552 18.4021 7.33114C18.3886 7.30863 18.3674 7.28767 18.3502 7.2798C18.3342 7.27249 18.3059 7.25062 18.2872 7.23121C18.2679 7.2112 18.2452 7.19592 18.2346 7.19592C18.2241 7.19592 18.2024 7.18132 18.1844 7.16212C18.1657 7.14212 18.1449 7.12831 18.1334 7.12831C18.1227 7.12831 18.1041 7.11878 18.0919 7.10713C18.0798 7.09547 18.0565 7.08154 18.0401 7.07616C18.0237 7.07078 17.9966 7.05559 17.9797 7.04242C17.9629 7.02924 17.9406 7.01845 17.9303 7.01845C17.92 7.01845 17.8969 7.00895 17.8791 6.99733C17.8612 6.98571 17.8359 6.97608 17.8228 6.97593C17.8097 6.97578 17.7913 6.97008 17.7819 6.96325C17.7725 6.95643 17.7544 6.95085 17.7417 6.95085C17.7291 6.95085 17.711 6.94526 17.7016 6.93844C17.6922 6.93161 17.6745 6.92591 17.6623 6.92576C17.6502 6.92561 17.6254 6.91789 17.6073 6.90859C17.5893 6.8993 17.5611 6.89169 17.5447 6.89169C17.5283 6.89169 17.5102 6.88629 17.5045 6.87969C17.4983 6.87246 17.4707 6.86603 17.4352 6.86352C17.4028 6.86123 17.3227 6.85315 17.2574 6.84554C17.0965 6.82684 16.758 6.82308 16.6988 6.83934Z" fill="#94A3B8"/>
</svg>
