<svg width="23" height="21" viewBox="0 0 23 21" fill="none" xmlns="http://www.w3.org/2000/svg">
<path d="M11.4634 7.70433V11.7043M11.4634 15.7043H11.4734M10.0787 2.59606L1.85381 16.8027C1.39761 17.5907 1.1695 17.9847 1.20322 18.308C1.23262 18.5901 1.38039 18.8464 1.60975 19.0131C1.87271 19.2043 2.32797 19.2043 3.23849 19.2043H19.6883C20.5988 19.2043 21.054 19.2043 21.317 19.0131C21.5464 18.8464 21.6941 18.5901 21.7235 18.308C21.7573 17.9847 21.5292 17.5907 21.0729 16.8027L12.8481 2.59605C12.3935 1.81089 12.1662 1.41831 11.8697 1.28646C11.611 1.17144 11.3157 1.17144 11.0571 1.28646C10.7605 1.41831 10.5333 1.81089 10.0787 2.59606Z" stroke="#FF7300" stroke-width="2.4" stroke-linecap="round" stroke-linejoin="round"/>
</svg>
