<svg width="16" height="16" viewBox="0 0 16 16" fill="none" xmlns="http://www.w3.org/2000/svg">
<path d="M14.7656 0.833008C14.8763 0.722295 15.0563 0.722295 15.167 0.833008C15.2778 0.943787 15.2778 1.1236 15.167 1.23438L8.40137 8L15.167 14.7656C15.2778 14.8765 15.2778 15.0561 15.167 15.167C15.0563 15.2777 14.8763 15.2777 14.7656 15.167L8 8.40137L1.23438 15.167C1.13745 15.2638 0.988033 15.2757 0.87793 15.2031L0.833008 15.167C0.722251 15.0561 0.722233 14.8765 0.833008 14.7656L7.59863 8L0.833008 1.23438C0.722229 1.12358 0.72222 0.943796 0.833008 0.833008C0.943783 0.722233 1.12355 0.722226 1.23438 0.833008L8 7.59863L14.7656 0.833008Z" fill="#FF383C" stroke="#FF383C" stroke-width="1.5"/>
</svg>
