<svg width="14" height="12" viewBox="0 0 14 12" fill="none" xmlns="http://www.w3.org/2000/svg">
<path fill-rule="evenodd" clip-rule="evenodd" d="M1.43189 4.87296C4.93014 3.34883 7.26285 2.34403 8.43002 1.85856C11.7626 0.472451 12.455 0.231668 12.9064 0.223718C13.0056 0.221969 13.2276 0.246571 13.3714 0.363234C13.4928 0.461742 13.5262 0.594812 13.5422 0.688209C13.5581 0.781605 13.578 0.994365 13.5622 1.16061C13.3816 3.05809 12.6002 7.66279 12.2027 9.788C12.0345 10.6873 11.7032 10.9888 11.3826 11.0183C10.6857 11.0824 10.1566 10.5577 9.48161 10.1153C8.42546 9.42299 7.82879 8.99201 6.80361 8.31643C5.61884 7.53568 6.38688 7.10657 7.06208 6.40528C7.23878 6.22175 10.3092 3.42899 10.3686 3.17564C10.376 3.14396 10.3829 3.02585 10.3128 2.96348C10.2426 2.90112 10.139 2.92244 10.0643 2.93941C9.95838 2.96345 8.27116 4.07864 5.00264 6.28498C4.52373 6.61384 4.08994 6.77407 3.70129 6.76567C3.27283 6.75642 2.44864 6.52341 1.83594 6.32425C1.08444 6.07997 0.487158 5.95081 0.539168 5.53594C0.566258 5.31985 0.863833 5.09886 1.43189 4.87296Z" fill="currentColor"/>
</svg>
