<svg width="20" height="20" viewBox="0 0 20 20" fill="none" xmlns="http://www.w3.org/2000/svg">
<g id="file-04">
<path id="Icon" d="M11.6668 1.89118V5.33329C11.6668 5.8 11.6668 6.03336 11.7577 6.21162C11.8376 6.36842 11.965 6.4959 12.1218 6.5758C12.3001 6.66663 12.5335 6.66663 13.0002 6.66663H16.4423M16.6668 8.32348V14.3333C16.6668 15.7334 16.6668 16.4335 16.3943 16.9683C16.1547 17.4387 15.7722 17.8211 15.3018 18.0608C14.767 18.3333 14.067 18.3333 12.6668 18.3333H7.3335C5.93336 18.3333 5.2333 18.3333 4.69852 18.0608C4.22811 17.8211 3.84566 17.4387 3.60598 16.9683C3.3335 16.4335 3.3335 15.7334 3.3335 14.3333V5.66663C3.3335 4.26649 3.3335 3.56643 3.60598 3.03165C3.84566 2.56124 4.22811 2.17879 4.69852 1.93911C5.2333 1.66663 5.93336 1.66663 7.3335 1.66663H10.01C10.6215 1.66663 10.9272 1.66663 11.2149 1.7357C11.47 1.79694 11.7139 1.89795 11.9375 2.03503C12.1898 2.18963 12.406 2.40582 12.8384 2.8382L15.4953 5.49505C15.9276 5.92743 16.1438 6.14362 16.2984 6.39591C16.4355 6.61959 16.5365 6.86346 16.5978 7.11855C16.6668 7.40627 16.6668 7.712 16.6668 8.32348Z" stroke="#98A2B3" stroke-width="1.66667" stroke-linecap="round" stroke-linejoin="round"/>
</g>
</svg>
